<?xml version="1.0" encoding="UTF-8" standalone="no"?>
<!-- Created with Inkscape (http://www.inkscape.org/) -->

<svg
   xmlns:dc="http://purl.org/dc/elements/1.1/"
   xmlns:cc="http://creativecommons.org/ns#"
   xmlns:rdf="http://www.w3.org/1999/02/22-rdf-syntax-ns#"
   xmlns:svg="http://www.w3.org/2000/svg"
   xmlns="http://www.w3.org/2000/svg"
   xmlns:xlink="http://www.w3.org/1999/xlink"
   xmlns:sodipodi="http://sodipodi.sourceforge.net/DTD/sodipodi-0.dtd"
   xmlns:inkscape="http://www.inkscape.org/namespaces/inkscape"
   width="1190.4519mm"
   height="206.69653mm"
   viewBox="0 0 4218.1367 732.38929"
   id="svg2"
   version="1.1"
   inkscape:version="0.91 r13725"
   sodipodi:docname="Numerals.svg">
  <defs
     id="defs4" />
  <sodipodi:namedview
     id="base"
     pagecolor="#000000"
     bordercolor="#666666"
     borderopacity="1.0"
     inkscape:pageopacity="0"
     inkscape:pageshadow="2"
     inkscape:zoom="0.24471078"
     inkscape:cx="2555.7512"
     inkscape:cy="339.35631"
     inkscape:document-units="px"
     inkscape:current-layer="layer1"
     showgrid="false"
     showborder="false"
     inkscape:window-width="1920"
     inkscape:window-height="1032"
     inkscape:window-x="0"
     inkscape:window-y="24"
     inkscape:window-maximized="1"
     fit-margin-top="0"
     fit-margin-left="0"
     fit-margin-right="0"
     fit-margin-bottom="0" />
  <metadata
     id="metadata7">
    <rdf:RDF>
      <cc:Work
         rdf:about="">
        <dc:format>image/svg+xml</dc:format>
        <dc:type
           rdf:resource="http://purl.org/dc/dcmitype/StillImage" />
        <dc:title />
      </cc:Work>
    </rdf:RDF>
  </metadata>
  <g
     inkscape:label="Layer 1"
     inkscape:groupmode="layer"
     id="layer1"
     transform="translate(-5.67291,-122.23652)">
    <path
       style="fill:#49ffbb;fill-opacity:1;fill-rule:evenodd;stroke:#63e2ff;stroke-width:5;stroke-linecap:butt;stroke-linejoin:miter;stroke-miterlimit:4;stroke-dasharray:none;stroke-opacity:1"
       d="m 182.15236,311.87689 c 209.03748,-296.374804 196.77811,123.42929 168.17291,330.36882 -21.2238,153.54006 -198.17097,150.8149 -191,12 8.17291,-158.21039 251.5937,-545.58221 22.82709,-342.36882 z"
       id="path4136"
       inkscape:connector-curvature="0"
       sodipodi:nodetypes="cssc" />
    <path
       style="fill:#49ffbb;fill-opacity:1;fill-rule:evenodd;stroke:#63e2ff;stroke-width:5;stroke-linecap:butt;stroke-linejoin:miter;stroke-miterlimit:4;stroke-dasharray:none;stroke-opacity:1"
       d="m 779,188.36133 c -148,0 -214,90 -214,149 0,59 41.55522,84.44175 84.22088,84.44175 102.88653,0 23.32526,-117.94175 163.88502,-117.94175 206.1241,0 75.8941,290.5 -64.1059,167.5 66,128 244,11 244,-100 0,-94 -71,-183 -214,-183 z"
       id="path4138"
       inkscape:connector-curvature="0"
       sodipodi:nodetypes="sssscss" />
    <use
       x="0"
       y="0"
       xlink:href="#path4138"
       id="use4142"
       inkscape:transform-center-y="112.99461"
       width="100%"
       height="100%"
       transform="matrix(-1,0,0,-1,1586.0001,951.71362)"
       inkscape:transform-center-x="2.0758363e-05"
       style="fill:#49ffbb;fill-opacity:1;stroke:#63e2ff;stroke-width:5;stroke-miterlimit:4;stroke-dasharray:none;stroke-opacity:1" />
    <circle
       style="color:#000000;clip-rule:nonzero;display:inline;overflow:visible;visibility:visible;opacity:1;isolation:auto;mix-blend-mode:normal;color-interpolation:sRGB;color-interpolation-filters:linearRGB;solid-color:#000000;solid-opacity:1;fill:#49ffbb;fill-opacity:1;fill-rule:evenodd;stroke:#63e2ff;stroke-width:5;stroke-linecap:butt;stroke-linejoin:miter;stroke-miterlimit:4;stroke-dasharray:none;stroke-dashoffset:0;stroke-opacity:1;color-rendering:auto;image-rendering:auto;shape-rendering:auto;text-rendering:auto;enable-background:accumulate"
       id="path4137"
       cx="1318.9038"
       cy="491.49603"
       r="99.096573" />
    <path
       sodipodi:nodetypes="sssscss"
       inkscape:connector-curvature="0"
       id="path4153"
       d="m 1299.0316,214.47006 c -148,0 -214,90 -214,149 0,59 41.5553,84.44175 84.2209,84.44175 102.8866,0 23.3257,-118.26027 163.885,-117.94175 207.2198,0.46957 131.6329,132.85398 109.8978,144.79787 25.5887,-2.91182 69.9963,-45.8811 69.9963,-77.29787 0,-94 -71,-183 -214,-183 z"
       style="fill:#49ffbb;fill-opacity:1;fill-rule:evenodd;stroke:#63e2ff;stroke-width:5;stroke-linecap:butt;stroke-linejoin:miter;stroke-miterlimit:4;stroke-dasharray:none;stroke-opacity:1" />
    <path
       style="fill:#49ffbb;fill-opacity:1;fill-rule:evenodd;stroke:#63e2ff;stroke-width:5;stroke-linecap:butt;stroke-linejoin:miter;stroke-miterlimit:4;stroke-dasharray:none;stroke-opacity:1"
       d="m 1299.0316,769.62756 c -148,0 -214,-90 -214,-149 0,-59 41.5553,-84.44175 84.2209,-84.44175 102.8866,0 23.3257,118.26027 163.885,117.94175 207.2198,-0.46957 131.6329,-132.85398 109.8978,-144.79787 25.5887,2.91182 69.9963,45.8811 69.9963,77.29787 0,94 -71,183 -214,183 z"
       id="path4155"
       inkscape:connector-curvature="0"
       sodipodi:nodetypes="sssscss" />
    <path
       style="color:#000000;clip-rule:nonzero;display:inline;overflow:visible;visibility:visible;opacity:1;isolation:auto;mix-blend-mode:normal;color-interpolation:sRGB;color-interpolation-filters:linearRGB;solid-color:#000000;solid-opacity:1;fill:#49ffbb;fill-opacity:1;fill-rule:evenodd;stroke:#63e2ff;stroke-width:5;stroke-linecap:butt;stroke-linejoin:miter;stroke-miterlimit:4;stroke-dasharray:none;stroke-dashoffset:0;stroke-opacity:1;color-rendering:auto;image-rendering:auto;shape-rendering:auto;text-rendering:auto;enable-background:accumulate"
       d="m 1621.6767,547.46605 c 102.197,-17.78399 201.3542,-56.69797 203.027,-109.31645 1.673,-52.6185 100.0256,-32.87683 114.3568,66.73593 14.3312,99.61275 -73.2073,112.20679 -81.4372,76.41825 -8.23,-35.78854 -119.5041,-38.26598 -235.9466,-33.83773 z"
       id="path4157"
       inkscape:connector-curvature="0" />
    <path
       inkscape:connector-curvature="0"
       id="path4178"
       d="m 2056.8454,551.36969 c -46.3067,-92.82359 -111.9876,-176.68327 -162.8813,-163.21701 -50.8937,13.46607 -60.1454,-86.42087 31.1909,-128.67905 91.3364,-42.2583 128.4723,38.00695 96.5397,56.14131 -31.9326,18.13448 -2.4392,125.4574 35.1507,235.75475 z"
       style="color:#000000;clip-rule:nonzero;display:inline;overflow:visible;visibility:visible;opacity:1;isolation:auto;mix-blend-mode:normal;color-interpolation:sRGB;color-interpolation-filters:linearRGB;solid-color:#000000;solid-opacity:1;fill:#49ffbb;fill-opacity:1;fill-rule:evenodd;stroke:#63e2ff;stroke-width:5;stroke-linecap:butt;stroke-linejoin:miter;stroke-miterlimit:4;stroke-dasharray:none;stroke-dashoffset:0;stroke-opacity:1;color-rendering:auto;image-rendering:auto;shape-rendering:auto;text-rendering:auto;enable-background:accumulate"
       inkscape:transform-center-x="-48.138258"
       inkscape:transform-center-y="174.31683" />
    <path
       style="color:#000000;clip-rule:nonzero;display:inline;overflow:visible;visibility:visible;opacity:1;isolation:auto;mix-blend-mode:normal;color-interpolation:sRGB;color-interpolation-filters:linearRGB;solid-color:#000000;solid-opacity:1;fill:#49ffbb;fill-opacity:1;fill-rule:evenodd;stroke:#63e2ff;stroke-width:5;stroke-linecap:butt;stroke-linejoin:miter;stroke-miterlimit:4;stroke-dasharray:none;stroke-dashoffset:0;stroke-opacity:1;color-rendering:auto;image-rendering:auto;shape-rendering:auto;text-rendering:auto;enable-background:accumulate"
       d="m 1952.1384,210.30453 c -173.7955,12.67953 -296.9942,162.88899 -300.383,224.99747 -3.3887,62.10849 114.3568,66.73592 130.2326,-15.65535 15.876,-82.39128 52.882,-167.82249 170.1504,-209.34212 z"
       id="path4180"
       inkscape:connector-curvature="0" />
    <path
       inkscape:connector-curvature="0"
       id="path4201"
       d="m 1952.5274,456.89723 c 98.4204,93.86218 98.1258,245.48358 69.3545,284.5849 -28.7715,39.10124 -102.0084,-16.5262 -70.6978,-74.04286 31.3105,-57.51664 51.3983,-127.34783 1.3433,-210.54204 z"
       style="color:#000000;clip-rule:nonzero;display:inline;overflow:visible;visibility:visible;opacity:1;isolation:auto;mix-blend-mode:normal;color-interpolation:sRGB;color-interpolation-filters:linearRGB;solid-color:#000000;solid-opacity:1;fill:#49ffbb;fill-opacity:1;fill-rule:evenodd;stroke:#63e2ff;stroke-width:5;stroke-linecap:butt;stroke-linejoin:miter;stroke-miterlimit:4;stroke-dasharray:none;stroke-dashoffset:0;stroke-opacity:1;color-rendering:auto;image-rendering:auto;shape-rendering:auto;text-rendering:auto;enable-background:accumulate"
       inkscape:transform-center-x="-177.86548"
       inkscape:transform-center-y="-28.016411" />
    <circle
       r="62.63567"
       cy="2329.1694"
       cx="896.47839"
       id="circle4203"
       style="color:#000000;clip-rule:nonzero;display:inline;overflow:visible;visibility:visible;opacity:1;isolation:auto;mix-blend-mode:normal;color-interpolation:sRGB;color-interpolation-filters:linearRGB;solid-color:#000000;solid-opacity:1;fill:#49ffbb;fill-opacity:1;fill-rule:evenodd;stroke:#63e2ff;stroke-width:5.00000003;stroke-linecap:butt;stroke-linejoin:miter;stroke-miterlimit:4;stroke-dasharray:none;stroke-dashoffset:0;stroke-opacity:1;color-rendering:auto;image-rendering:auto;shape-rendering:auto;text-rendering:auto;enable-background:accumulate"
       transform="matrix(0.56786597,-0.82312103,0.82312103,0.56786597,0,0)" />
    <path
       style="fill:#49ffbb;fill-opacity:1;fill-rule:evenodd;stroke:#63e2ff;stroke-width:5;stroke-linecap:butt;stroke-linejoin:miter;stroke-miterlimit:4;stroke-dasharray:none;stroke-opacity:1"
       d="m 2275.0077,495.6521 c -53.1216,76.99963 -29.9868,143.64092 0.7089,164.81776 30.6959,21.17682 58.8478,8.68873 74.1617,-13.50882 36.9291,-53.52859 -53.1545,-54.58273 -2.5381,-127.59683 74.6215,-107.6412 116.3666,-20.79915 114.7791,-5.20405 7.6698,-14.35813 1.2534,-52.88488 -15.0917,-64.1613 -48.9052,-33.73934 -120.6929,-28.74507 -172.0199,45.65321 z"
       id="path4205"
       inkscape:connector-curvature="0"
       sodipodi:nodetypes="sssscss" />
    <path
       sodipodi:nodetypes="sssscss"
       inkscape:connector-curvature="0"
       id="path4207"
       d="m 2563.8382,694.9144 c -53.1216,76.99961 -123.6349,79.03363 -154.3308,57.85681 -30.6957,-21.17683 -29.0169,-51.9285 -13.7034,-74.12597 36.9292,-53.52855 69.8994,30.31148 120.1845,-42.93128 74.133,-107.97831 -21.8726,-116.16955 -35.888,-109.14849 10.6994,-12.26782 48.9941,-19.94871 65.3393,-8.67233 48.9051,33.73935 69.7249,102.62308 18.3981,177.02131 z"
       style="fill:#49ffbb;fill-opacity:1;fill-rule:evenodd;stroke:#63e2ff;stroke-width:5;stroke-linecap:butt;stroke-linejoin:miter;stroke-miterlimit:4;stroke-dasharray:none;stroke-opacity:1" />
    <path
       inkscape:connector-curvature="0"
       id="path4209"
       d="m 2598.0888,328.14845 c -65.426,14.00598 -128.3666,41.5551 -128.1351,75.51073 0.2314,33.95562 -63.6508,23.67965 -75.3671,-40.16663 -11.7162,-63.84632 44.3912,-74.14237 50.5862,-51.28056 6.1953,22.8618 77.976,21.68893 152.916,15.93646 z"
       style="color:#000000;clip-rule:nonzero;display:inline;overflow:visible;visibility:visible;opacity:1;isolation:auto;mix-blend-mode:normal;color-interpolation:sRGB;color-interpolation-filters:linearRGB;solid-color:#000000;solid-opacity:1;fill:#49ffbb;fill-opacity:1;fill-rule:evenodd;stroke:#63e2ff;stroke-width:5;stroke-linecap:butt;stroke-linejoin:miter;stroke-miterlimit:4;stroke-dasharray:none;stroke-dashoffset:0;stroke-opacity:1;color-rendering:auto;image-rendering:auto;shape-rendering:auto;text-rendering:auto;enable-background:accumulate" />
    <path
       inkscape:connector-curvature="0"
       id="path4211"
       d="m 2171.3233,516.88099 c 150.2608,-52.07927 223.5429,-213.51896 211.9152,-269.08081 -11.6279,-55.56177 -116.5394,-31.93314 -111.1487,44.45158 5.39,76.38484 -7.1356,160.42258 -100.7665,224.62923 z"
       style="color:#000000;clip-rule:nonzero;display:inline;overflow:visible;visibility:visible;opacity:1;isolation:auto;mix-blend-mode:normal;color-interpolation:sRGB;color-interpolation-filters:linearRGB;solid-color:#000000;solid-opacity:1;fill:#49ffbb;fill-opacity:1;fill-rule:evenodd;stroke:#63e2ff;stroke-width:5;stroke-linecap:butt;stroke-linejoin:miter;stroke-miterlimit:4;stroke-dasharray:none;stroke-dashoffset:0;stroke-opacity:1;color-rendering:auto;image-rendering:auto;shape-rendering:auto;text-rendering:auto;enable-background:accumulate" />
    <path
       style="color:#000000;clip-rule:nonzero;display:inline;overflow:visible;visibility:visible;opacity:1;isolation:auto;mix-blend-mode:normal;color-interpolation:sRGB;color-interpolation-filters:linearRGB;solid-color:#000000;solid-opacity:1;fill:#49ffbb;fill-opacity:1;fill-rule:evenodd;stroke:#63e2ff;stroke-width:5;stroke-linecap:butt;stroke-linejoin:miter;stroke-miterlimit:4;stroke-dasharray:none;stroke-dashoffset:0;stroke-opacity:1;color-rendering:auto;image-rendering:auto;shape-rendering:auto;text-rendering:auto;enable-background:accumulate"
       d="m 2960.027,153.83359 c 17.0397,47.7989 24.3499,99.39209 2.3474,112.77649 -22.0026,13.3843 10.0899,50.50909 55.9569,32.62176 45.8669,-17.88733 30.1479,-58.19468 12.9269,-53.08003 -17.2211,5.11451 -45.0741,-41.66993 -71.2312,-92.31822 z"
       id="path4221"
       inkscape:connector-curvature="0" />
    <path
       style="color:#000000;clip-rule:nonzero;display:inline;overflow:visible;visibility:visible;opacity:1;isolation:auto;mix-blend-mode:normal;color-interpolation:sRGB;color-interpolation-filters:linearRGB;solid-color:#000000;solid-opacity:1;fill:#49ffbb;fill-opacity:1;fill-rule:evenodd;stroke:#63e2ff;stroke-width:5;stroke-linecap:butt;stroke-linejoin:miter;stroke-miterlimit:4;stroke-dasharray:none;stroke-dashoffset:0;stroke-opacity:1;color-rendering:auto;image-rendering:auto;shape-rendering:auto;text-rendering:auto;enable-background:accumulate"
       d="m 3035.8265,551.9005 c -51.5814,-109.02696 -3.0647,-234.43376 33.1992,-257.63872 36.2639,-23.20491 79.1731,46.1564 34.9445,83.79557 -44.2284,37.63951 -83.0886,89.04485 -68.1437,173.84315 z"
       id="path4223"
       inkscape:connector-curvature="0" />
    <g
       id="g4177"
       style="stroke:#242f00;stroke-opacity:1">
      <rect
         y="124.44103"
         x="535.03033"
         height="727.98029"
         width="515.4845"
         id="rect4255"
         style="color:#000000;clip-rule:nonzero;display:inline;overflow:visible;visibility:visible;opacity:1;isolation:auto;mix-blend-mode:normal;color-interpolation:sRGB;color-interpolation-filters:linearRGB;solid-color:#000000;solid-opacity:1;fill:none;fill-opacity:1;fill-rule:evenodd;stroke:#242f00;stroke-width:4.40901709;stroke-linecap:butt;stroke-linejoin:miter;stroke-miterlimit:4;stroke-dasharray:none;stroke-dashoffset:0;stroke-opacity:1;color-rendering:auto;image-rendering:auto;shape-rendering:auto;text-rendering:auto;enable-background:accumulate" />
      <rect
         style="color:#000000;clip-rule:nonzero;display:inline;overflow:visible;visibility:visible;opacity:1;isolation:auto;mix-blend-mode:normal;color-interpolation:sRGB;color-interpolation-filters:linearRGB;solid-color:#000000;solid-opacity:1;fill:none;fill-opacity:1;fill-rule:evenodd;stroke:#242f00;stroke-width:4.40901709;stroke-linecap:butt;stroke-linejoin:miter;stroke-miterlimit:4;stroke-dasharray:none;stroke-dashoffset:0;stroke-opacity:1;color-rendering:auto;image-rendering:auto;shape-rendering:auto;text-rendering:auto;enable-background:accumulate"
         id="rect4257"
         width="515.4845"
         height="727.98029"
         x="7.8774185"
         y="124.44103" />
      <rect
         style="color:#000000;clip-rule:nonzero;display:inline;overflow:visible;visibility:visible;opacity:1;isolation:auto;mix-blend-mode:normal;color-interpolation:sRGB;color-interpolation-filters:linearRGB;solid-color:#000000;solid-opacity:1;fill:none;fill-opacity:1;fill-rule:evenodd;stroke:#242f00;stroke-width:4.40901709;stroke-linecap:butt;stroke-linejoin:miter;stroke-miterlimit:4;stroke-dasharray:none;stroke-dashoffset:0;stroke-opacity:1;color-rendering:auto;image-rendering:auto;shape-rendering:auto;text-rendering:auto;enable-background:accumulate"
         id="rect4259"
         width="515.4845"
         height="727.98029"
         x="1581.1632"
         y="124.44103" />
      <rect
         y="124.44103"
         x="1054.0104"
         height="727.98029"
         width="515.4845"
         id="rect4261"
         style="color:#000000;clip-rule:nonzero;display:inline;overflow:visible;visibility:visible;opacity:1;isolation:auto;mix-blend-mode:normal;color-interpolation:sRGB;color-interpolation-filters:linearRGB;solid-color:#000000;solid-opacity:1;fill:none;fill-opacity:1;fill-rule:evenodd;stroke:#242f00;stroke-width:4.40901709;stroke-linecap:butt;stroke-linejoin:miter;stroke-miterlimit:4;stroke-dasharray:none;stroke-dashoffset:0;stroke-opacity:1;color-rendering:auto;image-rendering:auto;shape-rendering:auto;text-rendering:auto;enable-background:accumulate" />
      <rect
         style="color:#000000;clip-rule:nonzero;display:inline;overflow:visible;visibility:visible;opacity:1;isolation:auto;mix-blend-mode:normal;color-interpolation:sRGB;color-interpolation-filters:linearRGB;solid-color:#000000;solid-opacity:1;fill:none;fill-opacity:1;fill-rule:evenodd;stroke:#242f00;stroke-width:4.40901709;stroke-linecap:butt;stroke-linejoin:miter;stroke-miterlimit:4;stroke-dasharray:none;stroke-dashoffset:0;stroke-opacity:1;color-rendering:auto;image-rendering:auto;shape-rendering:auto;text-rendering:auto;enable-background:accumulate"
         id="rect4263"
         width="515.4845"
         height="727.98029"
         x="2659.9878"
         y="124.44103" />
      <rect
         y="124.44103"
         x="2132.835"
         height="727.98029"
         width="515.4845"
         id="rect4265"
         style="color:#000000;clip-rule:nonzero;display:inline;overflow:visible;visibility:visible;opacity:1;isolation:auto;mix-blend-mode:normal;color-interpolation:sRGB;color-interpolation-filters:linearRGB;solid-color:#000000;solid-opacity:1;fill:none;fill-opacity:1;fill-rule:evenodd;stroke:#242f00;stroke-width:4.40901709;stroke-linecap:butt;stroke-linejoin:miter;stroke-miterlimit:4;stroke-dasharray:none;stroke-dashoffset:0;stroke-opacity:1;color-rendering:auto;image-rendering:auto;shape-rendering:auto;text-rendering:auto;enable-background:accumulate" />
      <rect
         y="124.44103"
         x="3706.1206"
         height="727.98029"
         width="515.4845"
         id="rect4267"
         style="color:#000000;clip-rule:nonzero;display:inline;overflow:visible;visibility:visible;opacity:1;isolation:auto;mix-blend-mode:normal;color-interpolation:sRGB;color-interpolation-filters:linearRGB;solid-color:#000000;solid-opacity:1;fill:none;fill-opacity:1;fill-rule:evenodd;stroke:#242f00;stroke-width:4.40901709;stroke-linecap:butt;stroke-linejoin:miter;stroke-miterlimit:4;stroke-dasharray:none;stroke-dashoffset:0;stroke-opacity:1;color-rendering:auto;image-rendering:auto;shape-rendering:auto;text-rendering:auto;enable-background:accumulate" />
      <rect
         style="color:#000000;clip-rule:nonzero;display:inline;overflow:visible;visibility:visible;opacity:1;isolation:auto;mix-blend-mode:normal;color-interpolation:sRGB;color-interpolation-filters:linearRGB;solid-color:#000000;solid-opacity:1;fill:none;fill-opacity:1;fill-rule:evenodd;stroke:#242f00;stroke-width:4.40901709;stroke-linecap:butt;stroke-linejoin:miter;stroke-miterlimit:4;stroke-dasharray:none;stroke-dashoffset:0;stroke-opacity:1;color-rendering:auto;image-rendering:auto;shape-rendering:auto;text-rendering:auto;enable-background:accumulate"
         id="rect4269"
         width="515.4845"
         height="727.98029"
         x="3178.9678"
         y="124.44103" />
    </g>
    <path
       inkscape:connector-curvature="0"
       id="path4271"
       d="m 3865.7047,524.87427 c 54.5952,-48.28448 99.5883,-108.09164 81.2073,-140.19015 -18.381,-32.0986 47.7366,-56.51493 93.0033,-2.19409 45.2667,54.32076 -2.4698,94.10054 -20.5764,75.71923 -18.1067,-18.38125 -85.5961,21.12409 -153.6342,66.66501 z"
       style="color:#000000;clip-rule:nonzero;display:inline;overflow:visible;visibility:visible;opacity:1;isolation:auto;mix-blend-mode:normal;color-interpolation:sRGB;color-interpolation-filters:linearRGB;solid-color:#000000;solid-opacity:1;fill:#49ffbb;fill-opacity:1;fill-rule:evenodd;stroke:#63e2ff;stroke-width:5;stroke-linecap:butt;stroke-linejoin:miter;stroke-miterlimit:4;stroke-dasharray:none;stroke-dashoffset:0;stroke-opacity:1;color-rendering:auto;image-rendering:auto;shape-rendering:auto;text-rendering:auto;enable-background:accumulate" />
    <path
       inkscape:transform-center-y="61.099315"
       inkscape:transform-center-x="-108.03407"
       style="color:#000000;clip-rule:nonzero;display:inline;overflow:visible;visibility:visible;opacity:1;isolation:auto;mix-blend-mode:normal;color-interpolation:sRGB;color-interpolation-filters:linearRGB;solid-color:#000000;solid-opacity:1;fill:#49ffbb;fill-opacity:1;fill-rule:evenodd;stroke:#63e2ff;stroke-width:5;stroke-linecap:butt;stroke-linejoin:miter;stroke-miterlimit:4;stroke-dasharray:none;stroke-dashoffset:0;stroke-opacity:1;color-rendering:auto;image-rendering:auto;shape-rendering:auto;text-rendering:auto;enable-background:accumulate"
       d="m 4127.51,366.91624 c -61.8974,-38.48062 -132.0847,-64.46154 -157.5748,-37.65799 -25.4901,26.80364 -67.8188,-29.55222 -28.7367,-88.47944 39.0819,-58.9273 90.8665,-24.58249 78.4406,-1.97013 -12.426,22.61243 44.7524,75.96137 107.8709,128.10756 z"
       id="path4273"
       inkscape:connector-curvature="0" />
    <path
       inkscape:connector-curvature="0"
       id="path4275"
       d="m 3939.2316,201.42102 c -99.3137,71.60358 -117.6957,206.85594 -96.8458,245.26449 20.85,38.40862 93.0033,-2.19409 72.1533,-57.33769 -20.8497,-55.14375 -30.1771,-119.88947 24.6925,-187.9268 z"
       style="color:#000000;clip-rule:nonzero;display:inline;overflow:visible;visibility:visible;opacity:1;isolation:auto;mix-blend-mode:normal;color-interpolation:sRGB;color-interpolation-filters:linearRGB;solid-color:#000000;solid-opacity:1;fill:#49ffbb;fill-opacity:1;fill-rule:evenodd;stroke:#63e2ff;stroke-width:5;stroke-linecap:butt;stroke-linejoin:miter;stroke-miterlimit:4;stroke-dasharray:none;stroke-dashoffset:0;stroke-opacity:1;color-rendering:auto;image-rendering:auto;shape-rendering:auto;text-rendering:auto;enable-background:accumulate" />
    <path
       inkscape:transform-center-y="-73.985794"
       inkscape:transform-center-x="-91.421964"
       style="color:#000000;clip-rule:nonzero;display:inline;overflow:visible;visibility:visible;opacity:1;isolation:auto;mix-blend-mode:normal;color-interpolation:sRGB;color-interpolation-filters:linearRGB;solid-color:#000000;solid-opacity:1;fill:#49ffbb;fill-opacity:1;fill-rule:evenodd;stroke:#63e2ff;stroke-width:5;stroke-linecap:butt;stroke-linejoin:miter;stroke-miterlimit:4;stroke-dasharray:none;stroke-dashoffset:0;stroke-opacity:1;color-rendering:auto;image-rendering:auto;shape-rendering:auto;text-rendering:auto;enable-background:accumulate"
       d="m 4030.2963,348.81747 c 93.4603,19.90593 149.1334,110.73158 146.3222,144.72432 -2.8116,33.99274 -67.1205,27.68677 -69.5731,-18.2594 -2.4526,-45.94617 -16.1561,-95.12641 -76.7491,-126.46492 z"
       id="path4277"
       inkscape:connector-curvature="0" />
    <path
       style="color:#000000;clip-rule:nonzero;display:inline;overflow:visible;visibility:visible;opacity:1;isolation:auto;mix-blend-mode:normal;color-interpolation:sRGB;color-interpolation-filters:linearRGB;solid-color:#000000;solid-opacity:1;fill:#49ffbb;fill-opacity:1;fill-rule:evenodd;stroke:#63e2ff;stroke-width:5;stroke-linecap:butt;stroke-linejoin:miter;stroke-miterlimit:4;stroke-dasharray:none;stroke-dashoffset:0;stroke-opacity:1;color-rendering:auto;image-rendering:auto;shape-rendering:auto;text-rendering:auto;enable-background:accumulate"
       d="m 4078.9586,475.49329 c -54.5952,48.28446 -99.5883,108.09165 -81.2073,140.19017 18.381,32.0986 -47.7366,56.51493 -93.0033,2.19409 -45.2667,-54.32078 2.4698,-94.10058 20.5764,-75.71925 18.1067,18.38125 85.5961,-21.1241 153.6342,-66.66501 z"
       id="path4279"
       inkscape:connector-curvature="0" />
    <path
       inkscape:connector-curvature="0"
       id="path4281"
       d="m 3817.1533,633.45134 c 61.8974,38.48062 132.0847,64.46155 157.5748,37.65799 25.4901,-26.80364 67.8188,29.55222 28.7367,88.47944 -39.0819,58.9273 -90.8665,24.58249 -78.4406,1.97013 12.426,-22.61242 -44.7524,-75.96136 -107.8709,-128.10756 z"
       style="color:#000000;clip-rule:nonzero;display:inline;overflow:visible;visibility:visible;opacity:1;isolation:auto;mix-blend-mode:normal;color-interpolation:sRGB;color-interpolation-filters:linearRGB;solid-color:#000000;solid-opacity:1;fill:#49ffbb;fill-opacity:1;fill-rule:evenodd;stroke:#63e2ff;stroke-width:5;stroke-linecap:butt;stroke-linejoin:miter;stroke-miterlimit:4;stroke-dasharray:none;stroke-dashoffset:0;stroke-opacity:1;color-rendering:auto;image-rendering:auto;shape-rendering:auto;text-rendering:auto;enable-background:accumulate"
       inkscape:transform-center-x="108.03409"
       inkscape:transform-center-y="-61.099308" />
    <path
       style="color:#000000;clip-rule:nonzero;display:inline;overflow:visible;visibility:visible;opacity:1;isolation:auto;mix-blend-mode:normal;color-interpolation:sRGB;color-interpolation-filters:linearRGB;solid-color:#000000;solid-opacity:1;fill:#49ffbb;fill-opacity:1;fill-rule:evenodd;stroke:#63e2ff;stroke-width:5;stroke-linecap:butt;stroke-linejoin:miter;stroke-miterlimit:4;stroke-dasharray:none;stroke-dashoffset:0;stroke-opacity:1;color-rendering:auto;image-rendering:auto;shape-rendering:auto;text-rendering:auto;enable-background:accumulate"
       d="m 4005.4317,798.94656 c 99.3137,-71.60357 117.6957,-206.85594 96.8458,-245.26451 -20.85,-38.40862 -93.0033,2.19409 -72.1533,57.33771 20.8497,55.14375 30.1771,119.88948 -24.6925,187.9268 z"
       id="path4283"
       inkscape:connector-curvature="0" />
    <path
       inkscape:connector-curvature="0"
       id="path4285"
       d="m 3914.367,651.55012 c -93.4603,-19.90594 -149.1334,-110.73161 -146.3222,-144.72435 2.8116,-33.99274 67.1205,-27.68677 69.5731,18.2594 2.4526,45.94619 16.1561,95.12644 76.7491,126.46495 z"
       style="color:#000000;clip-rule:nonzero;display:inline;overflow:visible;visibility:visible;opacity:1;isolation:auto;mix-blend-mode:normal;color-interpolation:sRGB;color-interpolation-filters:linearRGB;solid-color:#000000;solid-opacity:1;fill:#49ffbb;fill-opacity:1;fill-rule:evenodd;stroke:#63e2ff;stroke-width:5;stroke-linecap:butt;stroke-linejoin:miter;stroke-miterlimit:4;stroke-dasharray:none;stroke-dashoffset:0;stroke-opacity:1;color-rendering:auto;image-rendering:auto;shape-rendering:auto;text-rendering:auto;enable-background:accumulate"
       inkscape:transform-center-x="91.421985"
       inkscape:transform-center-y="73.985809" />
    <path
       inkscape:connector-curvature="0"
       id="path4287"
       d="m 3117.9357,646.79891 c -76.5874,-36.00309 -161.0439,-56.46966 -186.8135,-22.1106 -25.7698,34.35891 -82.208,-24.90554 -45.1097,-98.14899 37.0982,-73.24356 101.4637,-40.64195 90.193,-12.88384 -11.2709,27.75827 61.886,81.54618 141.7302,133.14343 z"
       style="color:#000000;clip-rule:nonzero;display:inline;overflow:visible;visibility:visible;opacity:1;isolation:auto;mix-blend-mode:normal;color-interpolation:sRGB;color-interpolation-filters:linearRGB;solid-color:#000000;solid-opacity:1;fill:#49ffbb;fill-opacity:1;fill-rule:evenodd;stroke:#63e2ff;stroke-width:5;stroke-linecap:butt;stroke-linejoin:miter;stroke-miterlimit:4;stroke-dasharray:none;stroke-dashoffset:0;stroke-opacity:1;color-rendering:auto;image-rendering:auto;shape-rendering:auto;text-rendering:auto;enable-background:accumulate" />
    <path
       inkscape:transform-center-y="-158.27145"
       inkscape:transform-center-x="-22.702086"
       style="color:#000000;clip-rule:nonzero;display:inline;overflow:visible;visibility:visible;opacity:1;isolation:auto;mix-blend-mode:normal;color-interpolation:sRGB;color-interpolation-filters:linearRGB;solid-color:#000000;solid-opacity:1;fill:#49ffbb;fill-opacity:1;fill-rule:evenodd;stroke:#63e2ff;stroke-width:5;stroke-linecap:butt;stroke-linejoin:miter;stroke-miterlimit:4;stroke-dasharray:none;stroke-dashoffset:0;stroke-opacity:1;color-rendering:auto;image-rendering:auto;shape-rendering:auto;text-rendering:auto;enable-background:accumulate"
       d="m 2829.1247,440.3099 c -12.5616,83.69003 -7.9839,170.47031 32.3158,185.32088 40.2998,14.85061 -0.3194,85.8974 -81.1196,71.32854 -80.7998,-14.56871 -67.997,-85.5748 -38.1738,-82.72555 29.8234,2.8492 60.4075,-82.64737 86.9776,-173.92387 z"
       id="path4289"
       inkscape:connector-curvature="0" />
    <path
       inkscape:connector-curvature="0"
       id="path4291"
       d="m 2739.263,717.15633 c 122.0149,72.95688 274.6715,30.35542 306.0334,-9.53787 31.362,-39.89319 -45.1098,-98.14897 -94.3143,-50.55974 -49.2045,47.58934 -113.9455,87.30925 -211.7191,60.09761 z"
       style="color:#000000;clip-rule:nonzero;display:inline;overflow:visible;visibility:visible;opacity:1;isolation:auto;mix-blend-mode:normal;color-interpolation:sRGB;color-interpolation-filters:linearRGB;solid-color:#000000;solid-opacity:1;fill:#49ffbb;fill-opacity:1;fill-rule:evenodd;stroke:#63e2ff;stroke-width:5;stroke-linecap:butt;stroke-linejoin:miter;stroke-miterlimit:4;stroke-dasharray:none;stroke-dashoffset:0;stroke-opacity:1;color-rendering:auto;image-rendering:auto;shape-rendering:auto;text-rendering:auto;enable-background:accumulate" />
    <path
       inkscape:transform-center-y="-59.179443"
       inkscape:transform-center-x="114.61542"
       style="color:#000000;clip-rule:nonzero;display:inline;overflow:visible;visibility:visible;opacity:1;isolation:auto;mix-blend-mode:normal;color-interpolation:sRGB;color-interpolation-filters:linearRGB;solid-color:#000000;solid-opacity:1;fill:#49ffbb;fill-opacity:1;fill-rule:evenodd;stroke:#63e2ff;stroke-width:5;stroke-linecap:butt;stroke-linejoin:miter;stroke-miterlimit:4;stroke-dasharray:none;stroke-dashoffset:0;stroke-opacity:1;color-rendering:auto;image-rendering:auto;shape-rendering:auto;text-rendering:auto;enable-background:accumulate"
       d="m 2854.535,552.28017 c -21.7573,-108.79963 49.4758,-209.92622 87.0111,-222.56141 37.5354,-12.63512 60.3866,58.8296 12.5275,82.57438 -47.8586,23.74475 -93.9917,60.97213 -99.5386,139.98703 z"
       id="path4293"
       inkscape:connector-curvature="0" />
    <path
       inkscape:connector-curvature="0"
       id="path4295"
       d="m 3648.4025,-885.96135 c -20.738,33.30646 -48.4531,62.54827 -67.1385,55.6674 -18.6853,-6.88086 -25.7216,30.40317 7.1687,49.5641 32.8902,19.16093 49.7287,-9.74256 38.3491,-17.70691 -11.3795,-7.9644 3.5433,-47.32846 21.6207,-87.52459 z"
       style="color:#000000;clip-rule:nonzero;display:inline;overflow:visible;visibility:visible;opacity:1;isolation:auto;mix-blend-mode:normal;color-interpolation:sRGB;color-interpolation-filters:linearRGB;solid-color:#000000;solid-opacity:1;fill:#49ffbb;fill-opacity:1;fill-rule:evenodd;stroke:#63e2ff;stroke-width:5;stroke-linecap:butt;stroke-linejoin:miter;stroke-miterlimit:4;stroke-dasharray:none;stroke-dashoffset:0;stroke-opacity:1;color-rendering:auto;image-rendering:auto;shape-rendering:auto;text-rendering:auto;enable-background:accumulate" />
    <path
       inkscape:connector-curvature="0"
       id="path4297"
       d="m 3443.8987,-648.60366 c 41.1868,-83.66687 140.437,-114.61968 171.9271,-103.82971 31.4899,10.78998 10.1427,70.12786 -33.9158,61.4595 -44.0589,-8.66807 -93.8684,-7.46507 -138.0113,42.37021 z"
       style="color:#000000;clip-rule:nonzero;display:inline;overflow:visible;visibility:visible;opacity:1;isolation:auto;mix-blend-mode:normal;color-interpolation:sRGB;color-interpolation-filters:linearRGB;solid-color:#000000;solid-opacity:1;fill:#49ffbb;fill-opacity:1;fill-rule:evenodd;stroke:#63e2ff;stroke-width:5;stroke-linecap:butt;stroke-linejoin:miter;stroke-miterlimit:4;stroke-dasharray:none;stroke-dashoffset:0;stroke-opacity:1;color-rendering:auto;image-rendering:auto;shape-rendering:auto;text-rendering:auto;enable-background:accumulate" />
    <path
       style="color:#000000;clip-rule:nonzero;display:inline;overflow:visible;visibility:visible;opacity:1;isolation:auto;mix-blend-mode:normal;color-interpolation:sRGB;color-interpolation-filters:linearRGB;solid-color:#000000;solid-opacity:1;fill:#49ffbb;fill-opacity:1;fill-rule:evenodd;stroke:#63e2ff;stroke-width:5;stroke-linecap:butt;stroke-linejoin:miter;stroke-miterlimit:4;stroke-dasharray:none;stroke-dashoffset:0;stroke-opacity:1;color-rendering:auto;image-rendering:auto;shape-rendering:auto;text-rendering:auto;enable-background:accumulate"
       d="m 3425.9486,-553.25313 c -15.0453,-63.67879 -43.2804,-124.64786 -76.4746,-123.7202 -33.1941,0.92759 -24.4665,-61.74315 37.7148,-74.51703 62.1815,-12.77386 73.4071,41.87054 51.1827,48.39984 -22.2243,6.52932 -19.5951,76.68617 -12.4229,149.83739 z"
       id="path4299"
       inkscape:connector-curvature="0" />
    <path
       inkscape:connector-curvature="0"
       id="path4301"
       d="m 3412.0233,-827.4035 c -56.7029,32.65157 -107.0322,77.16463 -96.6373,108.70275 10.395,31.53821 -52.1503,41.12403 -82.1969,-14.79489 -30.0465,-55.91873 19.0944,-82.32322 31.7148,-62.89964 12.6206,19.42366 79.0859,-3.18729 147.1194,-31.00822 z"
       style="color:#000000;clip-rule:nonzero;display:inline;overflow:visible;visibility:visible;opacity:1;isolation:auto;mix-blend-mode:normal;color-interpolation:sRGB;color-interpolation-filters:linearRGB;solid-color:#000000;solid-opacity:1;fill:#49ffbb;fill-opacity:1;fill-rule:evenodd;stroke:#63e2ff;stroke-width:5;stroke-linecap:butt;stroke-linejoin:miter;stroke-miterlimit:4;stroke-dasharray:none;stroke-dashoffset:0;stroke-opacity:1;color-rendering:auto;image-rendering:auto;shape-rendering:auto;text-rendering:auto;enable-background:accumulate"
       inkscape:transform-center-x="-105.67523"
       inkscape:transform-center-y="-38.792128" />
    <path
       style="color:#000000;clip-rule:nonzero;display:inline;overflow:visible;visibility:visible;opacity:1;isolation:auto;mix-blend-mode:normal;color-interpolation:sRGB;color-interpolation-filters:linearRGB;solid-color:#000000;solid-opacity:1;fill:#49ffbb;fill-opacity:1;fill-rule:evenodd;stroke:#63e2ff;stroke-width:5;stroke-linecap:butt;stroke-linejoin:miter;stroke-miterlimit:4;stroke-dasharray:none;stroke-dashoffset:0;stroke-opacity:1;color-rendering:auto;image-rendering:auto;shape-rendering:auto;text-rendering:auto;enable-background:accumulate"
       d="m 3201.214,-748.63449 c 14.5268,108.95281 113.7441,180.86955 152.9783,180.66499 39.234,-0.20447 37.7148,-74.51701 -14.7605,-81.41137 -52.4752,-6.8944 -107.6601,-26.97886 -138.2178,-99.25362 z"
       id="path4303"
       inkscape:connector-curvature="0" />
    <path
       inkscape:connector-curvature="0"
       id="path4305"
       d="m 3356.4662,-758.16312 c 55.3947,-65.50405 150.874,-71.02681 176.5773,-54.38304 25.7033,16.6439 -6.5651,64.85158 -43.9593,47.30232 -37.394,-17.54915 -82.1194,-27.5684 -132.618,7.08072 z"
       style="color:#000000;clip-rule:nonzero;display:inline;overflow:visible;visibility:visible;opacity:1;isolation:auto;mix-blend-mode:normal;color-interpolation:sRGB;color-interpolation-filters:linearRGB;solid-color:#000000;solid-opacity:1;fill:#49ffbb;fill-opacity:1;fill-rule:evenodd;stroke:#63e2ff;stroke-width:5;stroke-linecap:butt;stroke-linejoin:miter;stroke-miterlimit:4;stroke-dasharray:none;stroke-dashoffset:0;stroke-opacity:1;color-rendering:auto;image-rendering:auto;shape-rendering:auto;text-rendering:auto;enable-background:accumulate"
       inkscape:transform-center-x="23.691324"
       inkscape:transform-center-y="-112.23726" />
    <path
       sodipodi:nodetypes="cssc"
       inkscape:connector-curvature="0"
       id="path4307"
       d="m 3459.2687,-621.31877 c 236.858,-138.17535 96.5665,146.69717 11.8934,280.03639 -62.8236,98.93186 -183.6642,41.47865 -135.1306,-51.73984 55.3146,-106.24318 344.4022,-296.20257 123.2372,-228.29655 z"
       style="fill:#49ffbb;fill-opacity:1;fill-rule:evenodd;stroke:#63e2ff;stroke-width:5;stroke-linecap:butt;stroke-linejoin:miter;stroke-miterlimit:4;stroke-dasharray:none;stroke-opacity:1" />
    <path
       inkscape:connector-curvature="0"
       id="path4179"
       d="m 3569.3049,412.51935 c -32.9104,62.81891 -53.0978,132.78783 -25.2632,155.60443 27.8344,22.81674 -23.8225,67.92615 -83.8026,34.21961 -59.9799,-33.70666 -30.3591,-86.4163 -7.5267,-75.97702 22.8323,10.43936 70.5085,-48.86495 116.5925,-113.84702 z"
       style="color:#000000;clip-rule:nonzero;display:inline;overflow:visible;visibility:visible;opacity:1;isolation:auto;mix-blend-mode:normal;color-interpolation:sRGB;color-interpolation-filters:linearRGB;solid-color:#000000;solid-opacity:1;fill:#49ffbb;fill-opacity:1;fill-rule:evenodd;stroke:#63e2ff;stroke-width:3.41828537;stroke-linecap:butt;stroke-linejoin:miter;stroke-miterlimit:4;stroke-dasharray:none;stroke-dashoffset:0;stroke-opacity:1;color-rendering:auto;image-rendering:auto;shape-rendering:auto;text-rendering:auto;enable-background:accumulate" />
    <path
       inkscape:transform-center-y="-22.012038"
       inkscape:transform-center-x="131.02427"
       style="color:#000000;clip-rule:nonzero;display:inline;overflow:visible;visibility:visible;opacity:1;isolation:auto;mix-blend-mode:normal;color-interpolation:sRGB;color-interpolation-filters:linearRGB;solid-color:#000000;solid-opacity:1;fill:#49ffbb;fill-opacity:1;fill-rule:evenodd;stroke:#63e2ff;stroke-width:3.41828537;stroke-linecap:butt;stroke-linejoin:miter;stroke-miterlimit:4;stroke-dasharray:none;stroke-dashoffset:0;stroke-opacity:1;color-rendering:auto;image-rendering:auto;shape-rendering:auto;text-rendering:auto;enable-background:accumulate"
       d="m 3385.9902,646.85402 c 69.613,13.5417 142.4324,12.84575 156.3221,-20.35731 13.8898,-33.20297 71.9036,3.37188 56.7857,70.49269 -15.1175,67.12077 -74.1023,53.83557 -70.639,28.96986 3.4633,-24.86556 -67.0107,-53.56111 -142.4688,-79.10524 z"
       id="path4181"
       inkscape:connector-curvature="0" />
    <path
       inkscape:connector-curvature="0"
       id="path4183"
       d="m 3614.5234,732.09377 c 65.4907,-99.51612 35.3414,-228.86289 3.0755,-256.56149 -32.266,-27.69855 -83.8026,34.21948 -45.7382,77.13435 38.0643,42.91495 68.9785,98.5528 42.6627,179.42714 z"
       style="color:#000000;clip-rule:nonzero;display:inline;overflow:visible;visibility:visible;opacity:1;isolation:auto;mix-blend-mode:normal;color-interpolation:sRGB;color-interpolation-filters:linearRGB;solid-color:#000000;solid-opacity:1;fill:#49ffbb;fill-opacity:1;fill-rule:evenodd;stroke:#63e2ff;stroke-width:3.41828537;stroke-linecap:butt;stroke-linejoin:miter;stroke-miterlimit:4;stroke-dasharray:none;stroke-dashoffset:0;stroke-opacity:1;color-rendering:auto;image-rendering:auto;shape-rendering:auto;text-rendering:auto;enable-background:accumulate" />
    <path
       inkscape:transform-center-y="93.87408"
       inkscape:transform-center-x="54.183279"
       style="color:#000000;clip-rule:nonzero;display:inline;overflow:visible;visibility:visible;opacity:1;isolation:auto;mix-blend-mode:normal;color-interpolation:sRGB;color-interpolation-filters:linearRGB;solid-color:#000000;solid-opacity:1;fill:#49ffbb;fill-opacity:1;fill-rule:evenodd;stroke:#63e2ff;stroke-width:3.41828537;stroke-linecap:butt;stroke-linejoin:miter;stroke-miterlimit:4;stroke-dasharray:none;stroke-dashoffset:0;stroke-opacity:1;color-rendering:auto;image-rendering:auto;shape-rendering:auto;text-rendering:auto;enable-background:accumulate"
       d="m 3480.6523,629.62708 c -91.8756,14.28325 -173.966,-49.00944 -183.1878,-80.89122 -9.2218,-31.88188 51.4358,-48.43049 69.5856,-7.50388 18.1497,40.92652 47.6499,80.8954 113.6022,88.3951 z"
       id="path4185"
       inkscape:connector-curvature="0" />
    <circle
       cy="3338.4255"
       cx="-634.55634"
       id="circle4187"
       style="color:#000000;clip-rule:nonzero;display:inline;overflow:visible;visibility:visible;opacity:1;isolation:auto;mix-blend-mode:normal;color-interpolation:sRGB;color-interpolation-filters:linearRGB;solid-color:#000000;solid-opacity:1;fill:#49ffbb;fill-opacity:1;fill-rule:evenodd;stroke:#63e2ff;stroke-width:2.8572228;stroke-linecap:butt;stroke-linejoin:miter;stroke-miterlimit:4;stroke-dasharray:none;stroke-dashoffset:0;stroke-opacity:1;color-rendering:auto;image-rendering:auto;shape-rendering:auto;text-rendering:auto;enable-background:accumulate"
       transform="matrix(-0.08215387,-0.99661966,0.99661966,-0.08215387,0,0)"
       r="56.628193"
       inkscape:transform-center-x="-4.7359275"
       inkscape:transform-center-y="-3.3488082" />
    <path
       style="fill:#49ffbb;fill-opacity:1;fill-rule:evenodd;stroke:#63e2ff;stroke-width:2.8572228;stroke-linecap:butt;stroke-linejoin:miter;stroke-miterlimit:4;stroke-dasharray:none;stroke-opacity:1"
       d="m 3222.4355,382.4693 c 6.9484,84.28792 61.3028,117.65065 94.9043,114.88061 33.6011,-2.76963 46.1395,-27.63022 44.1365,-51.92885 -4.83,-58.5953 -68.4456,-7.73268 -74.863,-87.79772 -9.4609,-118.03649 69.4823,-81.20369 77.3047,-69.38595 -2.8595,-14.43656 -29.4157,-37.70981 -47.3081,-36.23507 -53.5342,4.41294 -100.8877,49.02666 -94.1744,130.46698 z"
       id="path4189"
       inkscape:connector-curvature="0"
       sodipodi:nodetypes="sssscss"
       inkscape:transform-center-x="81.677725"
       inkscape:transform-center-y="13.226438" />
    <path
       sodipodi:nodetypes="sssscss"
       inkscape:connector-curvature="0"
       id="path4191"
       d="m 3538.605,356.40672 c 6.948,84.28793 -41.2095,126.10097 -74.8107,128.8706 -33.6016,2.77012 -50.0416,-19.70187 -52.0447,-44.00052 -4.8301,-58.59528 66.2557,-18.83601 59.4755,-98.87162 -9.9956,-117.99232 -81.8417,-68.72956 -87.6235,-55.79049 0.457,-14.70974 22.8436,-42.01761 40.7358,-43.49248 53.5345,-4.41314 107.5542,31.84427 114.2676,113.28451 z"
       style="fill:#49ffbb;fill-opacity:1;fill-rule:evenodd;stroke:#63e2ff;stroke-width:2.8572228;stroke-linecap:butt;stroke-linejoin:miter;stroke-miterlimit:4;stroke-dasharray:none;stroke-opacity:1"
       inkscape:transform-center-x="-86.905205"
       inkscape:transform-center-y="2.6410716" />
  </g>
</svg>
