<?xml version="1.0" encoding="UTF-8" standalone="no"?>
<!DOCTYPE svg PUBLIC "-//W3C//DTD SVG 1.1//EN" "http://www.w3.org/Graphics/SVG/1.1/DTD/svg11.dtd">
<svg xmlns:xlink="http://www.w3.org/1999/xlink" width="50.742ex" height="23.843ex" style="" viewBox="0 -5383.9 21847.2 10265.5" xmlns="http://www.w3.org/2000/svg">
<defs>
<path stroke-width="10" id="E1-MJMATHI-53" d="M308 24Q367 24 416 76T466 197Q466 260 414 284Q308 311 278 321T236 341Q176 383 176 462Q176 523 208 573T273 648Q302 673 343 688T407 704H418H425Q521 704 564 640Q565 640 577 653T603 682T623 704Q624 704 627 704T632 705Q645 705 645 698T617 577T585 459T569 456Q549 456 549 465Q549 471 550 475Q550 478 551 494T553 520Q553 554 544 579T526 616T501 641Q465 662 419 662Q362 662 313 616T263 510Q263 480 278 458T319 427Q323 425 389 408T456 390Q490 379 522 342T554 242Q554 216 546 186Q541 164 528 137T492 78T426 18T332 -20Q320 -22 298 -22Q199 -22 144 33L134 44L106 13Q83 -14 78 -18T65 -22Q52 -22 52 -14Q52 -11 110 221Q112 227 130 227H143Q149 221 149 216Q149 214 148 207T144 186T142 153Q144 114 160 87T203 47T255 29T308 24Z"/>
<path stroke-width="10" id="E1-MJMAIN-3D" d="M56 347Q56 360 70 367H707Q722 359 722 347Q722 336 708 328L390 327H72Q56 332 56 347ZM56 153Q56 168 72 173H708Q722 163 722 153Q722 140 707 133H70Q56 140 56 153Z"/>
<path stroke-width="10" id="E1-MJMAIN-31" d="M213 578L200 573Q186 568 160 563T102 556H83V602H102Q149 604 189 617T245 641T273 663Q275 666 285 666Q294 666 302 660V361L303 61Q310 54 315 52T339 48T401 46H427V0H416Q395 3 257 3Q121 3 100 0H88V46H114Q136 46 152 46T177 47T193 50T201 52T207 57T213 61V578Z"/>
<path stroke-width="10" id="E1-MJMAIN-32" d="M109 429Q82 429 66 447T50 491Q50 562 103 614T235 666Q326 666 387 610T449 465Q449 422 429 383T381 315T301 241Q265 210 201 149L142 93L218 92Q375 92 385 97Q392 99 409 186V189H449V186Q448 183 436 95T421 3V0H50V19V31Q50 38 56 46T86 81Q115 113 136 137Q145 147 170 174T204 211T233 244T261 278T284 308T305 340T320 369T333 401T340 431T343 464Q343 527 309 573T212 619Q179 619 154 602T119 569T109 550Q109 549 114 549Q132 549 151 535T170 489Q170 464 154 447T109 429Z"/>
<path stroke-width="10" id="E1-MJMAIN-35" d="M164 157Q164 133 148 117T109 101H102Q148 22 224 22Q294 22 326 82Q345 115 345 210Q345 313 318 349Q292 382 260 382H254Q176 382 136 314Q132 307 129 306T114 304Q97 304 95 310Q93 314 93 485V614Q93 664 98 664Q100 666 102 666Q103 666 123 658T178 642T253 634Q324 634 389 662Q397 666 402 666Q410 666 410 648V635Q328 538 205 538Q174 538 149 544L139 546V374Q158 388 169 396T205 412T256 420Q337 420 393 355T449 201Q449 109 385 44T229 -22Q148 -22 99 32T50 154Q50 178 61 192T84 210T107 214Q132 214 148 197T164 157Z"/>
<path stroke-width="10" id="E1-MJMAIN-221A" d="M95 178Q89 178 81 186T72 200T103 230T169 280T207 309Q209 311 212 311H213Q219 311 227 294T281 177Q300 134 312 108L397 -77Q398 -77 501 136T707 565T814 786Q820 800 834 800Q841 800 846 794T853 782V776L620 293L385 -193Q381 -200 366 -200Q357 -200 354 -197Q352 -195 256 15L160 225L144 214Q129 202 113 190T95 178Z"/>
<path stroke-width="10" id="E1-MJMATHI-61" d="M33 157Q33 258 109 349T280 441Q331 441 370 392Q386 422 416 422Q429 422 439 414T449 394Q449 381 412 234T374 68Q374 43 381 35T402 26Q411 27 422 35Q443 55 463 131Q469 151 473 152Q475 153 483 153H487Q506 153 506 144Q506 138 501 117T481 63T449 13Q436 0 417 -8Q409 -10 393 -10Q359 -10 336 5T306 36L300 51Q299 52 296 50Q294 48 292 46Q233 -10 172 -10Q117 -10 75 30T33 157ZM351 328Q351 334 346 350T323 385T277 405Q242 405 210 374T160 293Q131 214 119 129Q119 126 119 118T118 106Q118 61 136 44T179 26Q217 26 254 59T298 110Q300 114 325 217T351 328Z"/>
<path stroke-width="10" id="E1-MJMAIN-2248" d="M55 319Q55 360 72 393T114 444T163 472T205 482Q207 482 213 482T223 483Q262 483 296 468T393 413L443 381Q502 346 553 346Q609 346 649 375T694 454Q694 465 698 474T708 483Q722 483 722 452Q722 386 675 338T555 289Q514 289 468 310T388 357T308 404T224 426Q164 426 125 393T83 318Q81 289 69 289Q55 289 55 319ZM55 85Q55 126 72 159T114 210T163 238T205 248Q207 248 213 248T223 249Q262 249 296 234T393 179L443 147Q502 112 553 112Q609 112 649 141T694 220Q694 249 708 249T722 217Q722 153 675 104T555 55Q514 55 468 76T388 123T308 170T224 192Q164 192 125 159T83 84Q80 55 69 55Q55 55 55 85Z"/>
<path stroke-width="10" id="E1-MJMAIN-36" d="M42 313Q42 476 123 571T303 666Q372 666 402 630T432 550Q432 525 418 510T379 495Q356 495 341 509T326 548Q326 592 373 601Q351 623 311 626Q240 626 194 566Q147 500 147 364L148 360Q153 366 156 373Q197 433 263 433H267Q313 433 348 414Q372 400 396 374T435 317Q456 268 456 210V192Q456 169 451 149Q440 90 387 34T253 -22Q225 -22 199 -14T143 16T92 75T56 172T42 313ZM257 397Q227 397 205 380T171 335T154 278T148 216Q148 133 160 97T198 39Q222 21 251 21Q302 21 329 59Q342 77 347 104T352 209Q352 289 347 316T329 361Q302 397 257 397Z"/>
<path stroke-width="10" id="E1-MJMAIN-2E" d="M78 60Q78 84 95 102T138 120Q162 120 180 104T199 61Q199 36 182 18T139 0T96 17T78 60Z"/>
<path stroke-width="10" id="E1-MJMAIN-38" d="M70 417T70 494T124 618T248 666Q319 666 374 624T429 515Q429 485 418 459T392 417T361 389T335 371T324 363L338 354Q352 344 366 334T382 323Q457 264 457 174Q457 95 399 37T249 -22Q159 -22 101 29T43 155Q43 263 172 335L154 348Q133 361 127 368Q70 417 70 494ZM286 386L292 390Q298 394 301 396T311 403T323 413T334 425T345 438T355 454T364 471T369 491T371 513Q371 556 342 586T275 624Q268 625 242 625Q201 625 165 599T128 534Q128 511 141 492T167 463T217 431Q224 426 228 424L286 386ZM250 21Q308 21 350 55T392 137Q392 154 387 169T375 194T353 216T330 234T301 253T274 270Q260 279 244 289T218 306L210 311Q204 311 181 294T133 239T107 157Q107 98 150 60T250 21Z"/>
<path stroke-width="10" id="E1-MJMAIN-33" d="M127 463Q100 463 85 480T69 524Q69 579 117 622T233 665Q268 665 277 664Q351 652 390 611T430 522Q430 470 396 421T302 350L299 348Q299 347 308 345T337 336T375 315Q457 262 457 175Q457 96 395 37T238 -22Q158 -22 100 21T42 130Q42 158 60 175T105 193Q133 193 151 175T169 130Q169 119 166 110T159 94T148 82T136 74T126 70T118 67L114 66Q165 21 238 21Q293 21 321 74Q338 107 338 175V195Q338 290 274 322Q259 328 213 329L171 330L168 332Q166 335 166 348Q166 366 174 366Q202 366 232 371Q266 376 294 413T322 525V533Q322 590 287 612Q265 626 240 626Q208 626 181 615T143 592T132 580H135Q138 579 143 578T153 573T165 566T175 555T183 540T186 520Q186 498 172 481T127 463Z"/>
<path stroke-width="10" id="E1-MJMATHI-56" d="M52 648Q52 670 65 683H76Q118 680 181 680Q299 680 320 683H330Q336 677 336 674T334 656Q329 641 325 637H304Q282 635 274 635Q245 630 242 620Q242 618 271 369T301 118L374 235Q447 352 520 471T595 594Q599 601 599 609Q599 633 555 637Q537 637 537 648Q537 649 539 661Q542 675 545 679T558 683Q560 683 570 683T604 682T668 681Q737 681 755 683H762Q769 676 769 672Q769 655 760 640Q757 637 743 637Q730 636 719 635T698 630T682 623T670 615T660 608T652 599T645 592L452 282Q272 -9 266 -16Q263 -18 259 -21L241 -22H234Q216 -22 216 -15Q213 -9 177 305Q139 623 138 626Q133 637 76 637H59Q52 642 52 648Z"/>
<path stroke-width="10" id="E1-MJMAIN-34" d="M462 0Q444 3 333 3Q217 3 199 0H190V46H221Q241 46 248 46T265 48T279 53T286 61Q287 63 287 115V165H28V211L179 442Q332 674 334 675Q336 677 355 677H373L379 671V211H471V165H379V114Q379 73 379 66T385 54Q393 47 442 46H471V0H462ZM293 211V545L74 212L183 211H293Z"/>
<path stroke-width="10" id="E1-MJMAIN-2B" d="M56 237T56 250T70 270H369V420L370 570Q380 583 389 583Q402 583 409 568V270H707Q722 262 722 250T707 230H409V-68Q401 -82 391 -82H389H387Q375 -82 369 -68V230H70Q56 237 56 250Z"/>
<path stroke-width="10" id="E1-MJSZ2-221A" d="M1001 1150Q1017 1150 1020 1132Q1020 1127 741 244L460 -643Q453 -650 436 -650H424Q423 -647 423 -645T421 -640T419 -631T415 -617T408 -594T399 -560T385 -512T367 -448T343 -364T312 -259L203 119L138 41L111 67L212 188L264 248L472 -474L983 1140Q988 1150 1001 1150Z"/>
<path stroke-width="10" id="E1-MJMAIN-30" d="M96 585Q152 666 249 666Q297 666 345 640T423 548Q460 465 460 320Q460 165 417 83Q397 41 362 16T301 -15T250 -22Q224 -22 198 -16T137 16T82 83Q39 165 39 320Q39 494 96 585ZM321 597Q291 629 250 629Q208 629 178 597Q153 571 145 525T137 333Q137 175 145 125T181 46Q209 16 250 16Q290 16 318 46Q347 76 354 130T362 333Q362 478 354 524T321 597Z"/>
<path stroke-width="10" id="E1-MJMAIN-37" d="M55 458Q56 460 72 567L88 674Q88 676 108 676H128V672Q128 662 143 655T195 646T364 644H485V605L417 512Q408 500 387 472T360 435T339 403T319 367T305 330T292 284T284 230T278 162T275 80Q275 66 275 52T274 28V19Q270 2 255 -10T221 -22Q210 -22 200 -19T179 0T168 40Q168 198 265 368Q285 400 349 489L395 552H302Q128 552 119 546Q113 543 108 522T98 479L95 458V455H55V458Z"/>
<path stroke-width="10" id="E1-MJMATHI-72" d="M21 287Q22 290 23 295T28 317T38 348T53 381T73 411T99 433T132 442Q161 442 183 430T214 408T225 388Q227 382 228 382T236 389Q284 441 347 441H350Q398 441 422 400Q430 381 430 363Q430 333 417 315T391 292T366 288Q346 288 334 299T322 328Q322 376 378 392Q356 405 342 405Q286 405 239 331Q229 315 224 298T190 165Q156 25 151 16Q138 -11 108 -11Q95 -11 87 -5T76 7T74 17Q74 30 114 189T154 366Q154 405 128 405Q107 405 92 377T68 316T57 280Q55 278 41 278H27Q21 284 21 287Z"/>
<path stroke-width="10" id="E1-MJMAIN-69" d="M69 609Q69 637 87 653T131 669Q154 667 171 652T188 609Q188 579 171 564T129 549Q104 549 87 564T69 609ZM247 0Q232 3 143 3Q132 3 106 3T56 1L34 0H26V46H42Q70 46 91 49Q100 53 102 60T104 102V205V293Q104 345 102 359T88 378Q74 385 41 385H30V408Q30 431 32 431L42 432Q52 433 70 434T106 436Q123 437 142 438T171 441T182 442H185V62Q190 52 197 50T232 46H255V0H247Z"/>
<path stroke-width="10" id="E1-MJMATHI-3C6" d="M92 210Q92 176 106 149T142 108T185 85T220 72L235 70L237 71L250 112Q268 170 283 211T322 299T370 375T429 423T502 442Q547 442 582 410T618 302Q618 224 575 152T457 35T299 -10Q273 -10 273 -12L266 -48Q260 -83 252 -125T241 -179Q236 -203 215 -212Q204 -218 190 -218Q159 -215 159 -185Q159 -175 214 -2L209 0Q204 2 195 5T173 14T147 28T120 46T94 71T71 103T56 142T50 190Q50 238 76 311T149 431H162Q183 431 183 423Q183 417 175 409Q134 361 114 300T92 210ZM574 278Q574 320 550 344T486 369Q437 369 394 329T323 218Q309 184 295 109L286 64Q304 62 306 62Q423 62 498 131T574 278Z"/>
<path stroke-width="10" id="E1-MJSZ1-221A" d="M263 249Q264 249 315 130T417 -108T470 -228L725 302Q981 837 982 839Q989 850 1001 850Q1008 850 1013 844T1020 832V826L741 243Q645 43 540 -176Q479 -303 469 -324T453 -348Q449 -350 436 -350L424 -349L315 -96Q206 156 205 156L171 130Q138 104 137 104L111 130L263 249Z"/>
<path stroke-width="10" id="E1-MJSZ4-221A" d="M983 1739Q988 1750 1001 1750Q1008 1750 1013 1745T1020 1733Q1020 1726 742 244T460 -1241Q458 -1250 439 -1250H436Q424 -1250 424 -1248L410 -1166Q395 -1083 367 -920T312 -601L201 44L137 -83L111 -57L187 96L264 247Q265 246 369 -357Q470 -958 473 -963L727 384Q979 1729 983 1739Z"/>
<path stroke-width="10" id="E1-MJMAIN-6D" d="M41 46H55Q94 46 102 60V68Q102 77 102 91T102 122T103 161T103 203Q103 234 103 269T102 328V351Q99 370 88 376T43 385H25V408Q25 431 27 431L37 432Q47 433 65 434T102 436Q119 437 138 438T167 441T178 442H181V402Q181 364 182 364T187 369T199 384T218 402T247 421T285 437Q305 442 336 442Q351 442 364 440T387 434T406 426T421 417T432 406T441 395T448 384T452 374T455 366L457 361L460 365Q463 369 466 373T475 384T488 397T503 410T523 422T546 432T572 439T603 442Q729 442 740 329Q741 322 741 190V104Q741 66 743 59T754 49Q775 46 803 46H819V0H811L788 1Q764 2 737 2T699 3Q596 3 587 0H579V46H595Q656 46 656 62Q657 64 657 200Q656 335 655 343Q649 371 635 385T611 402T585 404Q540 404 506 370Q479 343 472 315T464 232V168V108Q464 78 465 68T468 55T477 49Q498 46 526 46H542V0H534L510 1Q487 2 460 2T422 3Q319 3 310 0H302V46H318Q379 46 379 62Q380 64 380 200Q379 335 378 343Q372 371 358 385T334 402T308 404Q263 404 229 370Q202 343 195 315T187 232V168V108Q187 78 188 68T191 55T200 49Q221 46 249 46H265V0H257L234 1Q210 2 183 2T145 3Q42 3 33 0H25V46H41Z"/>
<path stroke-width="10" id="E1-MJMAIN-28" d="M94 250Q94 319 104 381T127 488T164 576T202 643T244 695T277 729T302 750H315H319Q333 750 333 741Q333 738 316 720T275 667T226 581T184 443T167 250T184 58T225 -81T274 -167T316 -220T333 -241Q333 -250 318 -250H315H302L274 -226Q180 -141 137 -14T94 250Z"/>
<path stroke-width="10" id="E1-MJMAIN-29" d="M60 749L64 750Q69 750 74 750H86L114 726Q208 641 251 514T294 250Q294 182 284 119T261 12T224 -76T186 -143T145 -194T113 -227T90 -246Q87 -249 86 -250H74Q66 -250 63 -250T58 -247T55 -238Q56 -237 66 -225Q221 -64 221 250T66 725Q56 737 55 738Q55 746 60 749Z"/>
<path stroke-width="10" id="E1-MJSZ4-28" d="M758 -1237T758 -1240T752 -1249H736Q718 -1249 717 -1248Q711 -1245 672 -1199Q237 -706 237 251T672 1700Q697 1730 716 1749Q718 1750 735 1750H752Q758 1744 758 1741Q758 1737 740 1713T689 1644T619 1537T540 1380T463 1176Q348 802 348 251Q348 -242 441 -599T744 -1218Q758 -1237 758 -1240Z"/>
<path stroke-width="10" id="E1-MJSZ4-29" d="M33 1741Q33 1750 51 1750H60H65Q73 1750 81 1743T119 1700Q554 1207 554 251Q554 -707 119 -1199Q76 -1250 66 -1250Q65 -1250 62 -1250T56 -1249Q55 -1249 53 -1249T49 -1250Q33 -1250 33 -1239Q33 -1236 50 -1214T98 -1150T163 -1052T238 -910T311 -727Q443 -335 443 251Q443 402 436 532T405 831T339 1142T224 1438T50 1716Q33 1737 33 1741Z"/>
</defs>
<g stroke="currentColor" fill="currentColor" stroke-width="0" transform="matrix(1 0 0 -1 0 0)">
<g transform="translate(167,0)">
<g transform="translate(-11,0)">
 <use xlink:href="#E1-MJMATHI-53" x="498" y="4350"/>
 <use xlink:href="#E1-MJMATHI-56" x="374" y="2564"/>
<g transform="translate(392,-15)">
 <use xlink:href="#E1-MJMATHI-72" x="0" y="0"/>
 <use transform="scale(0.707)" xlink:href="#E1-MJMAIN-69" x="644" y="-213"/>
</g>
<g transform="translate(0,-3482)">
 <use xlink:href="#E1-MJMATHI-72" x="0" y="0"/>
 <use transform="scale(0.707)" xlink:href="#E1-MJMAIN-6D" x="644" y="-213"/>
</g>
</g>
<g transform="translate(1138,0)">
<g transform="translate(0,4350)">
 <use xlink:href="#E1-MJMAIN-3D" x="277" y="0"/>
<g transform="translate(1338,0)">
 <use xlink:href="#E1-MJMAIN-31"/>
 <use xlink:href="#E1-MJMAIN-32" x="505" y="0"/>
</g>
<g transform="translate(2348,0)">
 <use xlink:href="#E1-MJMAIN-221A" x="0" y="-2"/>
<rect stroke="none" width="505" height="60" x="838" y="748"/>
 <use xlink:href="#E1-MJMAIN-35" x="838" y="0"/>
</g>
<g transform="translate(3858,0)">
 <use xlink:href="#E1-MJMATHI-61" x="0" y="0"/>
 <use transform="scale(0.707)" xlink:href="#E1-MJMAIN-32" x="755" y="583"/>
</g>
</g>
<g transform="translate(0,2564)">
 <use xlink:href="#E1-MJMAIN-3D" x="277" y="0"/>
 <use xlink:href="#E1-MJMAIN-34" x="1338" y="0"/>
<g transform="translate(1843,0)">
 <use xlink:href="#E1-MJSZ2-221A" x="0" y="54"/>
<rect stroke="none" width="3580" height="60" x="1005" y="1154"/>
<g transform="translate(1005,0)">
 <use xlink:href="#E1-MJMAIN-35" x="0" y="0"/>
 <use xlink:href="#E1-MJMAIN-2B" x="727" y="0"/>
 <use xlink:href="#E1-MJMAIN-32" x="1732" y="0"/>
<g transform="translate(2237,0)">
 <use xlink:href="#E1-MJMAIN-221A" x="0" y="-2"/>
<rect stroke="none" width="505" height="60" x="838" y="748"/>
 <use xlink:href="#E1-MJMAIN-35" x="838" y="0"/>
</g>
</g>
</g>
<g transform="translate(6595,0)">
 <use xlink:href="#E1-MJMATHI-61" x="0" y="0"/>
 <use transform="scale(0.707)" xlink:href="#E1-MJMAIN-33" x="755" y="583"/>
</g>
</g>
<g transform="translate(0,-15)">
 <use xlink:href="#E1-MJMAIN-3D" x="277" y="0"/>
<g transform="translate(1338,0)">
<g transform="translate(120,0)">
<rect stroke="none" width="3973" height="60" x="0" y="220"/>
<g transform="translate(1428,747)">
 <use xlink:href="#E1-MJMATHI-3C6" x="0" y="0"/>
 <use transform="scale(0.707)" xlink:href="#E1-MJMAIN-32" x="931" y="513"/>
</g>
<g transform="translate(60,-966)">
 <use xlink:href="#E1-MJSZ1-221A" x="0" y="25"/>
<rect stroke="none" width="2848" height="60" x="1005" y="825"/>
<g transform="translate(1005,0)">
 <use xlink:href="#E1-MJMAIN-31" x="0" y="0"/>
 <use xlink:href="#E1-MJMAIN-2B" x="727" y="0"/>
<g transform="translate(1732,0)">
 <use xlink:href="#E1-MJMATHI-3C6" x="0" y="0"/>
 <use transform="scale(0.707)" xlink:href="#E1-MJMAIN-32" x="931" y="408"/>
</g>
</g>
</g>
</g>
</g>
 <use xlink:href="#E1-MJMATHI-61" x="5718" y="0"/>
 <use xlink:href="#E1-MJMAIN-3D" x="6530" y="0"/>
<g transform="translate(7591,0)">
 <use xlink:href="#E1-MJSZ4-221A" x="0" y="-148"/>
<rect stroke="none" width="3435" height="60" x="1005" y="1552"/>
<g transform="translate(1005,0)">
 <use xlink:href="#E1-MJMAIN-31" x="0" y="0"/>
 <use xlink:href="#E1-MJMAIN-2B" x="727" y="0"/>
<g transform="translate(1732,0)">
<g transform="translate(120,0)">
<rect stroke="none" width="1463" height="60" x="0" y="220"/>
 <use xlink:href="#E1-MJMAIN-32" x="479" y="676"/>
<g transform="translate(60,-918)">
 <use xlink:href="#E1-MJMAIN-221A" x="0" y="28"/>
<rect stroke="none" width="505" height="60" x="838" y="778"/>
 <use xlink:href="#E1-MJMAIN-35" x="838" y="0"/>
</g>
</g>
</g>
</g>
</g>
 <use xlink:href="#E1-MJMATHI-61" x="12198" y="0"/>
</g>
<g transform="translate(0,-3482)">
 <use xlink:href="#E1-MJMAIN-3D" x="277" y="0"/>
<g transform="translate(1338,0)">
 <use xlink:href="#E1-MJSZ4-28"/>
 <use xlink:href="#E1-MJMAIN-31" x="797" y="0"/>
 <use xlink:href="#E1-MJMAIN-2B" x="1524" y="0"/>
<g transform="translate(2529,0)">
<g transform="translate(120,0)">
<rect stroke="none" width="1463" height="60" x="0" y="220"/>
 <use xlink:href="#E1-MJMAIN-31" x="479" y="676"/>
<g transform="translate(60,-918)">
 <use xlink:href="#E1-MJMAIN-221A" x="0" y="28"/>
<rect stroke="none" width="505" height="60" x="838" y="778"/>
 <use xlink:href="#E1-MJMAIN-35" x="838" y="0"/>
</g>
</g>
</g>
 <use xlink:href="#E1-MJSZ4-29" x="4232" y="0"/>
</g>
 <use xlink:href="#E1-MJMATHI-61" x="6701" y="0"/>
</g>
</g>
<g transform="translate(15870,0)">
<g transform="translate(0,4350)">
 <use xlink:href="#E1-MJMAIN-2248" x="277" y="0"/>
<g transform="translate(1338,0)">
 <use xlink:href="#E1-MJMAIN-32"/>
 <use xlink:href="#E1-MJMAIN-36" x="505" y="0"/>
 <use xlink:href="#E1-MJMAIN-2E" x="1010" y="0"/>
 <use xlink:href="#E1-MJMAIN-38" x="1293" y="0"/>
 <use xlink:href="#E1-MJMAIN-33" x="1798" y="0"/>
 <use xlink:href="#E1-MJMAIN-32" x="2303" y="0"/>
 <use xlink:href="#E1-MJMAIN-38" x="2808" y="0"/>
</g>
<g transform="translate(4651,0)">
 <use xlink:href="#E1-MJMATHI-61" x="0" y="0"/>
 <use transform="scale(0.707)" xlink:href="#E1-MJMAIN-32" x="755" y="583"/>
</g>
</g>
<g transform="translate(0,2564)">
 <use xlink:href="#E1-MJMAIN-2248" x="277" y="0"/>
<g transform="translate(1338,0)">
 <use xlink:href="#E1-MJMAIN-31"/>
 <use xlink:href="#E1-MJMAIN-32" x="505" y="0"/>
 <use xlink:href="#E1-MJMAIN-2E" x="1010" y="0"/>
 <use xlink:href="#E1-MJMAIN-33" x="1293" y="0"/>
 <use xlink:href="#E1-MJMAIN-31" x="1798" y="0"/>
 <use xlink:href="#E1-MJMAIN-30" x="2303" y="0"/>
 <use xlink:href="#E1-MJMAIN-37" x="2808" y="0"/>
</g>
<g transform="translate(4651,0)">
 <use xlink:href="#E1-MJMATHI-61" x="0" y="0"/>
 <use transform="scale(0.707)" xlink:href="#E1-MJMAIN-33" x="755" y="583"/>
</g>
</g>
<g transform="translate(0,-15)">
 <use xlink:href="#E1-MJMAIN-2248" x="277" y="0"/>
<g transform="translate(1338,0)">
 <use xlink:href="#E1-MJMAIN-31"/>
 <use xlink:href="#E1-MJMAIN-2E" x="505" y="0"/>
 <use xlink:href="#E1-MJMAIN-33" x="788" y="0"/>
 <use xlink:href="#E1-MJMAIN-37" x="1293" y="0"/>
 <use xlink:href="#E1-MJMAIN-36" x="1798" y="0"/>
 <use xlink:href="#E1-MJMAIN-33" x="2303" y="0"/>
 <use xlink:href="#E1-MJMAIN-38" x="2808" y="0"/>
</g>
 <use xlink:href="#E1-MJMATHI-61" x="4651" y="0"/>
</g>
<g transform="translate(0,-3482)">
 <use xlink:href="#E1-MJMAIN-2248" x="277" y="0"/>
<g transform="translate(1338,0)">
 <use xlink:href="#E1-MJMAIN-31"/>
 <use xlink:href="#E1-MJMAIN-2E" x="505" y="0"/>
 <use xlink:href="#E1-MJMAIN-34" x="788" y="0"/>
 <use xlink:href="#E1-MJMAIN-34" x="1293" y="0"/>
 <use xlink:href="#E1-MJMAIN-37" x="1798" y="0"/>
 <use xlink:href="#E1-MJMAIN-32" x="2303" y="0"/>
 <use xlink:href="#E1-MJMAIN-31" x="2808" y="0"/>
</g>
 <use xlink:href="#E1-MJMATHI-61" x="4651" y="0"/>
</g>
</g>
</g>
</g>
</svg>