<?xml version="1.0" encoding="UTF-8" standalone="no"?>
<!-- Created with Inkscape (http://www.inkscape.org/) -->

<svg
   xmlns:dc="http://purl.org/dc/elements/1.1/"
   xmlns:cc="http://creativecommons.org/ns#"
   xmlns:rdf="http://www.w3.org/1999/02/22-rdf-syntax-ns#"
   xmlns:svg="http://www.w3.org/2000/svg"
   xmlns="http://www.w3.org/2000/svg"
   xmlns:sodipodi="http://sodipodi.sourceforge.net/DTD/sodipodi-0.dtd"
   xmlns:inkscape="http://www.inkscape.org/namespaces/inkscape"
   width="744.09448819"
   height="1052.3622047"
   id="svg2"
   version="1.1"
   inkscape:version="0.48.5 r10040"
   sodipodi:docname="tilesegments.svg">
  <defs
     id="defs4" />
  <sodipodi:namedview
     id="base"
     pagecolor="#ffffff"
     bordercolor="#666666"
     borderopacity="1.0"
     inkscape:pageopacity="0.0"
     inkscape:pageshadow="2"
     inkscape:zoom="0.7"
     inkscape:cx="515.92735"
     inkscape:cy="519.75792"
     inkscape:document-units="px"
     inkscape:current-layer="layer1"
     showgrid="false"
     showborder="false"
     inkscape:window-width="1920"
     inkscape:window-height="1032"
     inkscape:window-x="0"
     inkscape:window-y="24"
     inkscape:window-maximized="1" />
  <metadata
     id="metadata7">
    <rdf:RDF>
      <cc:Work
         rdf:about="">
        <dc:format>image/svg+xml</dc:format>
        <dc:type
           rdf:resource="http://purl.org/dc/dcmitype/StillImage" />
      </cc:Work>
    </rdf:RDF>
  </metadata>
  <g
     inkscape:label="Layer 1"
     inkscape:groupmode="layer"
     id="layer1">
    <path
       inkscape:connector-curvature="0"
       inkscape:tile-y0="276.5625"
       inkscape:tile-x0="214.15625"
       id="use2991"
       d="m 964.05625,277.625 c 0,-0.59777 -0.49598,-1.0625 -1.09375,-1.0625 l -232.1875,0 c -0.59777,0 -1.0625,0.46473 -1.0625,1.0625 l 0,232.21875 c 0,0.59777 0.46473,1.0625 1.0625,1.0625 l 232.1875,0 c 0.59777,0 1.09375,-0.46473 1.09375,-1.0625 l 0,-232.21875 z"
       style="color:#000000;fill:#fafcbf;fill-opacity:1;fill-rule:nonzero;stroke:none;stroke-width:1;marker:none;visibility:visible;display:inline;overflow:visible;enable-background:accumulate" />
    <path
       inkscape:connector-curvature="0"
       inkscape:tile-y0="276.5625"
       inkscape:tile-x0="214.15625"
       id="use2993"
       d="m 706.27812,277.625 c 0,-0.59777 -0.49598,-1.0625 -1.09375,-1.0625 l -232.1875,0 c -0.59777,0 -1.0625,0.46473 -1.0625,1.0625 l 0,232.21875 c 0,0.59777 0.46473,1.0625 1.0625,1.0625 l 232.1875,0 c 0.59777,0 1.09375,-0.46473 1.09375,-1.0625 l 0,-232.21875 z"
       style="color:#000000;fill:#fafcbf;fill-opacity:1;fill-rule:nonzero;stroke:none;stroke-width:1;marker:none;visibility:visible;display:inline;overflow:visible;enable-background:accumulate" />
    <path
       inkscape:connector-curvature="0"
       inkscape:tile-y0="276.5625"
       inkscape:tile-x0="214.15625"
       id="use2995"
       d="m 448.5,277.625 c 0,-0.59777 -0.49598,-1.0625 -1.09375,-1.0625 l -232.1875,0 c -0.5978,0 -1.0625,0.46473 -1.0625,1.0625 l 0,232.21875 c 0,0.59777 0.4647,1.0625 1.0625,1.0625 l 232.1875,0 c 0.59777,0 1.09375,-0.46473 1.09375,-1.0625 l 0,-232.21875 z"
       style="color:#000000;fill:#fafcbf;fill-opacity:1;fill-rule:nonzero;stroke:none;stroke-width:1;marker:none;visibility:visible;display:inline;overflow:visible;enable-background:accumulate" />
    <path
       inkscape:connector-curvature="0"
       inkscape:tile-y0="276.5625"
       inkscape:tile-x0="214.15625"
       id="use2997"
       d="m 964.05625,535.40313 c 0,-0.59777 -0.49598,-1.0625 -1.09375,-1.0625 l -232.1875,0 c -0.59777,0 -1.0625,0.46473 -1.0625,1.0625 l 0,232.21875 c 0,0.59777 0.46473,1.0625 1.0625,1.0625 l 232.1875,0 c 0.59777,0 1.09375,-0.46473 1.09375,-1.0625 l 0,-232.21875 z"
       style="color:#000000;fill:#fafcbf;fill-opacity:1;fill-rule:nonzero;stroke:none;stroke-width:1;marker:none;visibility:visible;display:inline;overflow:visible;enable-background:accumulate" />
    <path
       inkscape:connector-curvature="0"
       inkscape:tile-y0="276.5625"
       inkscape:tile-x0="214.15625"
       id="use2999"
       d="m 706.27812,535.40313 c 0,-0.59777 -0.49598,-1.0625 -1.09375,-1.0625 l -232.1875,0 c -0.59777,0 -1.0625,0.46473 -1.0625,1.0625 l 0,232.21875 c 0,0.59777 0.46473,1.0625 1.0625,1.0625 l 232.1875,0 c 0.59777,0 1.09375,-0.46473 1.09375,-1.0625 l 0,-232.21875 z"
       style="color:#000000;fill:#c6fcbf;fill-opacity:1;fill-rule:nonzero;stroke:none;stroke-width:1;marker:none;visibility:visible;display:inline;overflow:visible;enable-background:accumulate" />
    <path
       inkscape:connector-curvature="0"
       inkscape:tile-y0="276.5625"
       inkscape:tile-x0="214.15625"
       id="use3001"
       d="m 448.5,535.40313 c 0,-0.59777 -0.49598,-1.0625 -1.09375,-1.0625 l -232.1875,0 c -0.5978,0 -1.0625,0.46473 -1.0625,1.0625 l 0,232.21875 c 0,0.59777 0.4647,1.0625 1.0625,1.0625 l 232.1875,0 c 0.59777,0 1.09375,-0.46473 1.09375,-1.0625 l 0,-232.21875 z"
       style="color:#000000;fill:#fafcbf;fill-opacity:1;fill-rule:nonzero;stroke:none;stroke-width:1;marker:none;visibility:visible;display:inline;overflow:visible;enable-background:accumulate" />
    <path
       inkscape:connector-curvature="0"
       inkscape:tile-y0="276.5625"
       inkscape:tile-x0="214.15625"
       id="use3003"
       d="m 964.05625,793.18125 c 0,-0.59777 -0.49598,-1.0625 -1.09375,-1.0625 l -232.1875,0 c -0.59777,0 -1.0625,0.46473 -1.0625,1.0625 l 0,232.21875 c 0,0.5978 0.46473,1.0625 1.0625,1.0625 l 232.1875,0 c 0.59777,0 1.09375,-0.4647 1.09375,-1.0625 l 0,-232.21875 z"
       style="color:#000000;fill:#fafcbf;fill-opacity:1;fill-rule:nonzero;stroke:none;stroke-width:1;marker:none;visibility:visible;display:inline;overflow:visible;enable-background:accumulate" />
    <path
       inkscape:connector-curvature="0"
       inkscape:tile-y0="276.5625"
       inkscape:tile-x0="214.15625"
       id="use3005"
       d="m 706.27812,793.18125 c 0,-0.59777 -0.49598,-1.0625 -1.09375,-1.0625 l -232.1875,0 c -0.59777,0 -1.0625,0.46473 -1.0625,1.0625 l 0,232.21875 c 0,0.5978 0.46473,1.0625 1.0625,1.0625 l 232.1875,0 c 0.59777,0 1.09375,-0.4647 1.09375,-1.0625 l 0,-232.21875 z"
       style="color:#000000;fill:#fafcbf;fill-opacity:1;fill-rule:nonzero;stroke:none;stroke-width:1;marker:none;visibility:visible;display:inline;overflow:visible;enable-background:accumulate" />
    <path
       inkscape:connector-curvature="0"
       inkscape:tile-y0="276.5625"
       inkscape:tile-x0="214.15625"
       id="use3007"
       d="m 448.5,793.18125 c 0,-0.59777 -0.49598,-1.0625 -1.09375,-1.0625 l -232.1875,0 c -0.5978,0 -1.0625,0.46473 -1.0625,1.0625 l 0,232.21875 c 0,0.5978 0.4647,1.0625 1.0625,1.0625 l 232.1875,0 c 0.59777,0 1.09375,-0.4647 1.09375,-1.0625 l 0,-232.21875 z"
       style="color:#000000;fill:#fafcbf;fill-opacity:1;fill-rule:nonzero;stroke:none;stroke-width:1;marker:none;visibility:visible;display:inline;overflow:visible;enable-background:accumulate" />
    <rect
       style="color:#000000;fill:#0a4003;fill-opacity:1;fill-rule:nonzero;stroke:none;stroke-width:1;marker:none;visibility:visible;display:inline;overflow:visible;enable-background:accumulate"
       id="rect3795"
       width="70"
       height="154.28572"
       x="486.69196"
       y="-662.5423"
       ry="1.079004"
       transform="matrix(0,1,-1,0,0,0)" />
    <rect
       ry="1.079004"
       y="-662.5423"
       x="736.69196"
       height="154.28572"
       width="70"
       id="rect3797"
       style="color:#000000;fill:#0a4003;fill-opacity:1;fill-rule:nonzero;stroke:none;stroke-width:1;marker:none;visibility:visible;display:inline;overflow:visible;enable-background:accumulate"
       transform="matrix(0,1,-1,0,0,0)" />
    <rect
       ry="1.079004"
       y="-723.83484"
       x="-745.39941"
       height="154.28572"
       width="70"
       id="rect3799"
       style="color:#000000;fill:#0a4003;fill-opacity:1;fill-rule:nonzero;stroke:none;stroke-width:1;marker:none;visibility:visible;display:inline;overflow:visible;enable-background:accumulate"
       transform="scale(-1,-1)" />
    <rect
       style="color:#000000;fill:#0a4003;fill-opacity:1;fill-rule:nonzero;stroke:none;stroke-width:1;marker:none;visibility:visible;display:inline;overflow:visible;enable-background:accumulate"
       id="rect3801"
       width="70"
       height="154.28572"
       x="-495.39938"
       y="-723.83484"
       ry="1.079004"
       transform="scale(-1,-1)" />
    <path
       sodipodi:type="arc"
       style="color:#000000;fill:#dc610a;fill-opacity:1;fill-rule:nonzero;stroke:none;stroke-width:1;marker:none;visibility:visible;display:inline;overflow:visible;enable-background:accumulate"
       id="path3803"
       sodipodi:cx="458.57144"
       sodipodi:cy="778.07648"
       sodipodi:rx="44.285713"
       sodipodi:ry="44.285713"
       d="m 502.85715,778.07648 a 44.285713,44.285713 0 1 1 -88.57142,0 44.285713,44.285713 0 1 1 88.57142,0 z"
       transform="matrix(0,1,-1,0,1240.6188,62.40625)" />
    <path
       d="m 502.85715,778.07648 a 44.285713,44.285713 0 1 1 -88.57142,0 44.285713,44.285713 0 1 1 88.57142,0 z"
       sodipodi:ry="44.285713"
       sodipodi:rx="44.285713"
       sodipodi:cy="778.07648"
       sodipodi:cx="458.57144"
       id="path3805"
       style="color:#000000;fill:#dc610a;fill-opacity:1;fill-rule:nonzero;stroke:none;stroke-width:1;marker:none;visibility:visible;display:inline;overflow:visible;enable-background:accumulate"
       sodipodi:type="arc"
       transform="matrix(0,1,-1,0,1240.6188,322.40625)" />
    <path
       d="m 502.85715,778.07648 a 44.285713,44.285713 0 1 1 -88.57142,0 44.285713,44.285713 0 1 1 88.57142,0 z"
       sodipodi:ry="44.285713"
       sodipodi:rx="44.285713"
       sodipodi:cy="778.07648"
       sodipodi:cx="458.57144"
       id="path3807"
       style="color:#000000;fill:#dc610a;fill-opacity:1;fill-rule:nonzero;stroke:none;stroke-width:1;marker:none;visibility:visible;display:inline;overflow:visible;enable-background:accumulate"
       sodipodi:type="arc"
       transform="matrix(0,1,-1,0,1492.0473,62.40625)" />
    <path
       transform="matrix(0,1,-1,0,1492.0473,322.40625)"
       sodipodi:type="arc"
       style="color:#000000;fill:#dc610a;fill-opacity:1;fill-rule:nonzero;stroke:none;stroke-width:1;marker:none;visibility:visible;display:inline;overflow:visible;enable-background:accumulate"
       id="path3809"
       sodipodi:cx="458.57144"
       sodipodi:cy="778.07648"
       sodipodi:rx="44.285713"
       sodipodi:ry="44.285713"
       d="m 502.85715,778.07648 a 44.285713,44.285713 0 1 1 -88.57142,0 44.285713,44.285713 0 1 1 88.57142,0 z" />
    <path
       style="fill:none;stroke:#00d70d;stroke-width:5;stroke-linecap:butt;stroke-linejoin:miter;stroke-opacity:1;stroke-miterlimit:4;stroke-dasharray:none"
       d="m 500,622.36218 c -15.71429,0 -121.42857,44.28572 -121.42857,44.28572 l 120,41.42857"
       id="path3811"
       inkscape:connector-curvature="0" />
    <path
       inkscape:connector-curvature="0"
       id="path3813"
       d="m 619.28571,593.07647 c 0,-15.71429 -44.28572,-121.42857 -44.28572,-121.42857 l -41.42857,120"
       style="fill:none;stroke:#00d70d;stroke-width:5;stroke-linecap:butt;stroke-linejoin:miter;stroke-miterlimit:4;stroke-opacity:1;stroke-dasharray:none" />
    <path
       style="fill:none;stroke:#00d70d;stroke-width:5;stroke-linecap:butt;stroke-linejoin:miter;stroke-miterlimit:4;stroke-opacity:1;stroke-dasharray:none"
       d="m 629.28571,833.07647 c 0,-15.71429 -44.28572,-121.42857 -44.28572,-121.42857 l -41.42857,120"
       id="path3815"
       inkscape:connector-curvature="0" />
    <path
       inkscape:connector-curvature="0"
       id="path3817"
       d="m 765.71429,628.07647 c -15.71429,0 -121.42857,44.28572 -121.42857,44.28572 l 120,41.42857"
       style="fill:none;stroke:#00d70d;stroke-width:5;stroke-linecap:butt;stroke-linejoin:miter;stroke-miterlimit:4;stroke-opacity:1;stroke-dasharray:none" />
    <rect
       style="color:#000000;fill:#dc610a;fill-opacity:1;fill-rule:nonzero;stroke:#00d70d;stroke-width:5;stroke-miterlimit:4;stroke-opacity:1;stroke-dasharray:none;marker:none;visibility:visible;display:inline;overflow:visible;enable-background:accumulate"
       id="rect3819"
       width="30"
       height="28.571428"
       x="289.5491"
       y="-686.828"
       ry="1.079004"
       transform="matrix(0,1,-1,0,0,0)" />
    <rect
       style="color:#000000;fill:#dc610a;fill-opacity:1;fill-rule:nonzero;stroke:#00d70d;stroke-width:5;stroke-miterlimit:4;stroke-opacity:1;stroke-dasharray:none;marker:none;visibility:visible;display:inline;overflow:visible;enable-background:accumulate"
       id="rect3821"
       width="28.571428"
       height="27.142857"
       x="542.40625"
       y="-956.828"
       ry="1.079004"
       transform="matrix(0,1,-1,0,0,0)" />
    <rect
       style="color:#000000;fill:#4edc0a;fill-opacity:1;fill-rule:nonzero;stroke:#d70000;stroke-width:5;stroke-miterlimit:4;stroke-opacity:1;stroke-dasharray:none;marker:none;visibility:visible;display:inline;overflow:visible;enable-background:accumulate"
       id="rect3823"
       width="57.142857"
       height="52.857143"
       x="366.69196"
       y="-871.11371"
       ry="1.079004"
       transform="matrix(0,1,-1,0,0,0)" />
    <rect
       style="color:#000000;fill:#0a2fdc;fill-opacity:1;fill-rule:nonzero;stroke:#e946ff;stroke-width:5;stroke-miterlimit:4;stroke-opacity:1;stroke-dasharray:none;marker:none;visibility:visible;display:inline;overflow:visible;enable-background:accumulate"
       id="rect3825"
       width="42.857143"
       height="41.42857"
       x="356.69196"
       y="-599.68518"
       ry="1.079004"
       transform="matrix(0,1,-1,0,0,0)" />
    <rect
       style="color:#000000;fill:#0a2fdc;fill-opacity:1;fill-rule:nonzero;stroke:#e946ff;stroke-width:5;stroke-miterlimit:4;stroke-opacity:1;stroke-dasharray:none;marker:none;visibility:visible;display:inline;overflow:visible;enable-background:accumulate"
       id="rect3827"
       width="42.857143"
       height="35.714287"
       x="378.12054"
       y="-789.68512"
       ry="1.079004"
       transform="matrix(0,1,-1,0,0,0)" />
    <rect
       style="color:#000000;fill:#0a2fdc;fill-opacity:1;fill-rule:nonzero;stroke:#e946ff;stroke-width:5;stroke-miterlimit:4;stroke-opacity:1;stroke-dasharray:none;marker:none;visibility:visible;display:inline;overflow:visible;enable-background:accumulate"
       id="rect3829"
       width="44.285713"
       height="44.285713"
       x="588.12054"
       y="-849.68512"
       ry="1.079004"
       transform="matrix(0,1,-1,0,0,0)" />
    <rect
       style="color:#000000;fill:#000000;fill-opacity:1;fill-rule:nonzero;stroke:#ffef46;stroke-width:5;stroke-miterlimit:4;stroke-opacity:1;stroke-dasharray:none;marker:none;visibility:visible;display:inline;overflow:visible;enable-background:accumulate"
       id="rect3831"
       width="38.57143"
       height="45.714287"
       x="462.40625"
       y="-888.25659"
       ry="1.079004"
       transform="matrix(0,1,-1,0,0,0)" />
    <rect
       style="color:#000000;fill:#000000;fill-opacity:1;fill-rule:nonzero;stroke:#ffef46;stroke-width:5;stroke-miterlimit:4;stroke-opacity:1;stroke-dasharray:none;marker:none;visibility:visible;display:inline;overflow:visible;enable-background:accumulate"
       id="rect3833"
       width="44.285713"
       height="52.857143"
       x="718.12054"
       y="-882.5423"
       ry="1.079004"
       transform="matrix(0,1,-1,0,0,0)" />
    <rect
       style="color:#000000;fill:#ffffff;fill-opacity:1;fill-rule:nonzero;stroke:#000000;stroke-width:5;stroke-miterlimit:4;stroke-opacity:1;stroke-dasharray:none;marker:none;visibility:visible;display:inline;overflow:visible;enable-background:accumulate"
       id="rect3835"
       width="44.285713"
       height="50"
       x="366.69196"
       y="-689.68518"
       ry="1.079004"
       transform="matrix(0,1,-1,0,0,0)" />
    <rect
       style="color:#000000;fill:#ffffff;fill-opacity:1;fill-rule:nonzero;stroke:#000000;stroke-width:5;stroke-miterlimit:4;stroke-opacity:1;stroke-dasharray:none;marker:none;visibility:visible;display:inline;overflow:visible;enable-background:accumulate"
       id="rect3837"
       width="42.857143"
       height="41.42857"
       x="369.5491"
       y="-942.5423"
       ry="1.079004"
       transform="matrix(0,1,-1,0,0,0)" />
    <rect
       ry="1.079004"
       y="845.21942"
       x="-191.42857"
       height="41.42857"
       width="42.857143"
       id="rect3839"
       style="color:#000000;fill:#0a2fdc;fill-opacity:1;fill-rule:nonzero;stroke:#e946ff;stroke-width:5;stroke-miterlimit:4;stroke-opacity:1;stroke-dasharray:none;marker:none;visibility:visible;display:inline;overflow:visible;enable-background:accumulate" />
    <rect
       ry="1.079004"
       y="302.36221"
       x="-190"
       height="50"
       width="44.285713"
       id="rect3841"
       style="color:#000000;fill:#ffffff;fill-opacity:1;fill-rule:nonzero;stroke:#000000;stroke-width:5;stroke-miterlimit:4;stroke-opacity:1;stroke-dasharray:none;marker:none;visibility:visible;display:inline;overflow:visible;enable-background:accumulate" />
    <rect
       ry="1.079004"
       y="666.64783"
       x="-191.42857"
       height="28.571428"
       width="30"
       id="rect3843"
       style="color:#000000;fill:#dc610a;fill-opacity:1;fill-rule:nonzero;stroke:#00d70d;stroke-width:5;stroke-miterlimit:4;stroke-opacity:1;stroke-dasharray:none;marker:none;visibility:visible;display:inline;overflow:visible;enable-background:accumulate" />
    <rect
       ry="1.079004"
       y="198.07642"
       x="-200"
       height="52.857143"
       width="57.142857"
       id="rect3845"
       style="color:#000000;fill:#4edc0a;fill-opacity:1;fill-rule:nonzero;stroke:#d70000;stroke-width:5;stroke-miterlimit:4;stroke-opacity:1;stroke-dasharray:none;marker:none;visibility:visible;display:inline;overflow:visible;enable-background:accumulate" />
    <rect
       ry="1.079004"
       y="410.07651"
       x="-207.14285"
       height="45.714287"
       width="38.57143"
       id="rect3847"
       style="color:#000000;fill:#000000;fill-opacity:1;fill-rule:nonzero;stroke:#ffef46;stroke-width:5;stroke-miterlimit:4;stroke-opacity:1;stroke-dasharray:none;marker:none;visibility:visible;display:inline;overflow:visible;enable-background:accumulate" />
    <rect
       style="color:#000000;fill:#ffffff;fill-opacity:1;fill-rule:nonzero;stroke:#000000;stroke-width:5;stroke-miterlimit:4;stroke-opacity:1;stroke-dasharray:none;marker:none;visibility:visible;display:inline;overflow:visible;enable-background:accumulate"
       id="rect3849"
       width="74.285713"
       height="74.285713"
       x="5.7142797"
       y="822.36218"
       ry="1.079004" />
    <rect
       ry="1.079004"
       y="296.64798"
       x="11.428566"
       height="74.285713"
       width="74.285713"
       id="rect3851"
       style="color:#000000;fill:#ffffff;fill-opacity:1;fill-rule:nonzero;stroke:#000000;stroke-width:5;stroke-miterlimit:4;stroke-opacity:1;stroke-dasharray:none;marker:none;visibility:visible;display:inline;overflow:visible;enable-background:accumulate" />
    <rect
       style="color:#000000;fill:#ffffff;fill-opacity:1;fill-rule:nonzero;stroke:#000000;stroke-width:5;stroke-miterlimit:4;stroke-opacity:1;stroke-dasharray:none;marker:none;visibility:visible;display:inline;overflow:visible;enable-background:accumulate"
       id="rect3853"
       width="74.285713"
       height="74.285713"
       x="645.50507"
       y="-75.999939"
       ry="1.079004"
       transform="matrix(0,1,-1,0,0,0)" />
    <rect
       ry="1.079004"
       y="-87.571411"
       x="190.505"
       height="74.285713"
       width="74.285713"
       id="rect3855"
       style="color:#000000;fill:#ffffff;fill-opacity:1;fill-rule:nonzero;stroke:#000000;stroke-width:5;stroke-miterlimit:4;stroke-opacity:1;stroke-dasharray:none;marker:none;visibility:visible;display:inline;overflow:visible;enable-background:accumulate"
       transform="matrix(0,1,-1,0,0,0)" />
    <rect
       style="color:#000000;fill:#ffffff;fill-opacity:1;fill-rule:nonzero;stroke:#000000;stroke-width:5;stroke-miterlimit:4;stroke-opacity:1;stroke-dasharray:none;marker:none;visibility:visible;display:inline;overflow:visible;enable-background:accumulate"
       id="rect3857"
       width="74.285713"
       height="74.285713"
       x="8.5714254"
       y="398.64792"
       ry="1.079004" />
    <path
       style="fill:none;stroke:#000000;stroke-width:5;stroke-linecap:butt;stroke-linejoin:miter;stroke-miterlimit:4;stroke-opacity:1;stroke-dasharray:none"
       d="m -237.14286,-0.49496048 120,0"
       id="path3859"
       inkscape:connector-curvature="0" />
    <rect
       ry="1.079004"
       y="-91.259712"
       x="-25.806763"
       height="74.285713"
       width="74.285713"
       id="rect3861"
       style="color:#000000;fill:#ffffff;fill-opacity:1;fill-rule:nonzero;stroke:#000000;stroke-width:5;stroke-miterlimit:4;stroke-opacity:1;stroke-dasharray:none;marker:none;visibility:visible;display:inline;overflow:visible;enable-background:accumulate"
       transform="matrix(0,1,-1,0,0,0)" />
    <path
       style="fill:none;stroke:#000000;stroke-width:1px;stroke-linecap:butt;stroke-linejoin:miter;stroke-opacity:1"
       d="m 15.714282,467.21933 64.28572,-65.7143"
       id="path3863"
       inkscape:connector-curvature="0" />
    <path
       inkscape:connector-curvature="0"
       id="path3865"
       d="m 14.999992,402.21933 65.7143,64.2857"
       style="fill:none;stroke:#000000;stroke-width:1px;stroke-linecap:butt;stroke-linejoin:miter;stroke-opacity:1" />
    <path
       style="fill:none;stroke:#000000;stroke-width:1px;stroke-linecap:butt;stroke-linejoin:miter;stroke-opacity:1"
       d="m 36.000054,646.93363 c -4.2858,40 44.2857,34.28571 44.2857,34.28571"
       id="path3867"
       inkscape:connector-curvature="0" />
    <path
       style="fill:none;stroke:#000000;stroke-width:1px;stroke-linecap:butt;stroke-linejoin:miter;stroke-opacity:1"
       d="M 11.428573,360.9336 82.857144,299.505"
       id="path3869"
       inkscape:connector-curvature="0" />
    <path
       style="fill:none;stroke:#000000;stroke-width:1px;stroke-linecap:butt;stroke-linejoin:miter;stroke-opacity:1"
       d="m 12.857143,299.505 71.428571,68.5715"
       id="path3871"
       inkscape:connector-curvature="0" />
    <path
       style="fill:none;stroke:#000000;stroke-width:1px;stroke-linecap:butt;stroke-linejoin:miter;stroke-opacity:1"
       d="m 47.571461,191.9336 c 0,0 1.4285,27.1429 -28.5715,28.5715"
       id="path3873"
       inkscape:connector-curvature="0" />
    <path
       style="fill:none;stroke:#000000;stroke-width:1px;stroke-linecap:butt;stroke-linejoin:miter;stroke-opacity:1"
       d="m 84.714261,230.5051 c 0,0 -30,-7.1429 -30,37.1428"
       id="path3875"
       inkscape:connector-curvature="0" />
    <path
       style="fill:none;stroke:#000000;stroke-width:1.39087939px;stroke-linecap:butt;stroke-linejoin:miter;stroke-opacity:1"
       d="m 75.349993,53.99781 c 0,-53.64821048 -35.7655,-59.6091305 -67.5570996,-59.6091305"
       id="path3877"
       inkscape:connector-curvature="0" />
    <path
       sodipodi:type="star"
       style="color:#000000;fill:#19d0dc;fill-opacity:1;fill-rule:nonzero;stroke:#000000;stroke-width:5;stroke-miterlimit:4;stroke-opacity:1;stroke-dasharray:none;marker:none;visibility:visible;display:inline;overflow:visible;enable-background:accumulate"
       id="path3879"
       sodipodi:sides="5"
       sodipodi:cx="255.71429"
       sodipodi:cy="719.50507"
       sodipodi:r1="32.888184"
       sodipodi:r2="16.444092"
       sodipodi:arg1="0.97074611"
       sodipodi:arg2="1.5990646"
       inkscape:flatsided="true"
       inkscape:rounded="0"
       inkscape:randomized="0"
       d="m 274.28572,746.64792 -38.64693,-1.09277 -10.90327,-37.0931 31.90834,-21.83203 30.62371,23.60017 z"
       inkscape:transform-center-x="-2.8661437"
       inkscape:transform-center-y="0.28725287"
       transform="matrix(0,1,-1,0,1240.6188,62.40625)" />
    <path
       sodipodi:type="star"
       style="color:#000000;fill:#19d0dc;fill-opacity:1;fill-rule:nonzero;stroke:#000000;stroke-width:5;stroke-miterlimit:4;stroke-opacity:1;stroke-dasharray:none;marker:none;visibility:visible;display:inline;overflow:visible;enable-background:accumulate"
       id="path3881"
       sodipodi:sides="5"
       sodipodi:cx="594.28571"
       sodipodi:cy="322.36218"
       sodipodi:r1="39.408897"
       sodipodi:r2="16.853304"
       sodipodi:arg1="0.81103357"
       sodipodi:arg2="1.2316194"
       inkscape:flatsided="false"
       inkscape:rounded="0"
       inkscape:randomized="0"
       d="m 621.42856,350.93361 -21.53557,-12.67828 -24.39272,18.7503 5.4029,-24.39935 -25.37036,-17.4047 24.87475,-2.40135 8.71298,-29.50699 9.97054,22.91524 30.75527,-0.83163 -18.71261,16.56375 z"
       inkscape:transform-center-x="-2.2127971"
       inkscape:transform-center-y="-1.5961248"
       transform="matrix(0,1,-1,0,1240.6188,62.40625)" />
    <path
       transform="translate(-436.00155,-595.70536)"
       sodipodi:type="star"
       style="color:#000000;fill:#19d0dc;fill-opacity:1;fill-rule:nonzero;stroke:#000000;stroke-width:5;stroke-miterlimit:4;stroke-opacity:1;stroke-dasharray:none;marker:none;visibility:visible;display:inline;overflow:visible;enable-background:accumulate"
       id="path3879-6"
       sodipodi:sides="5"
       sodipodi:cx="255.71429"
       sodipodi:cy="719.50507"
       sodipodi:r1="32.888184"
       sodipodi:r2="16.444092"
       sodipodi:arg1="0.97074611"
       sodipodi:arg2="1.5990646"
       inkscape:flatsided="true"
       inkscape:rounded="0"
       inkscape:randomized="0"
       d="m 274.28572,746.64792 -38.64693,-1.09277 -10.90327,-37.0931 31.90834,-21.83203 30.62371,23.60017 z"
       inkscape:transform-center-x="-0.28725287"
       inkscape:transform-center-y="-2.8660937" />
    <path
       inkscape:transform-center-y="-2.2127471"
       inkscape:transform-center-x="1.5961248"
       d="m 621.42856,350.93361 -21.53557,-12.67828 -24.39272,18.7503 5.4029,-24.39935 -25.37036,-17.4047 24.87475,-2.40135 8.71298,-29.50699 9.97054,22.91524 30.75527,-0.83163 -18.71261,16.56375 z"
       inkscape:randomized="0"
       inkscape:rounded="0"
       inkscape:flatsided="false"
       sodipodi:arg2="1.2316194"
       sodipodi:arg1="0.81103357"
       sodipodi:r2="16.853304"
       sodipodi:r1="39.408897"
       sodipodi:cy="322.36218"
       sodipodi:cx="594.28571"
       sodipodi:sides="5"
       id="path3912"
       style="color:#000000;fill:#19d0dc;fill-opacity:1;fill-rule:nonzero;stroke:#000000;stroke-width:5;stroke-miterlimit:4;stroke-opacity:1;stroke-dasharray:none;marker:none;visibility:visible;display:inline;overflow:visible;enable-background:accumulate"
       sodipodi:type="star"
       transform="translate(-778.57144,281.42857)" />
    <rect
       ry="1.079004"
       y="60.933662"
       x="4.2857089"
       height="74.285713"
       width="74.285713"
       id="rect3914"
       style="color:#000000;fill:#ffffff;fill-opacity:1;fill-rule:nonzero;stroke:#000000;stroke-width:5;stroke-miterlimit:4;stroke-opacity:1;stroke-dasharray:none;marker:none;visibility:visible;display:inline;overflow:visible;enable-background:accumulate" />
    <rect
       style="color:#000000;fill:#ffffff;fill-opacity:1;fill-rule:nonzero;stroke:#000000;stroke-width:5;stroke-miterlimit:4;stroke-opacity:1;stroke-dasharray:none;marker:none;visibility:visible;display:inline;overflow:visible;enable-background:accumulate"
       id="rect3954"
       width="74.285713"
       height="74.285713"
       x="5.7142797"
       y="556.64795"
       ry="1.079004" />
    <text
       xml:space="preserve"
       style="font-size:40.32030106px;font-style:normal;font-weight:normal;line-height:125%;letter-spacing:0px;word-spacing:0px;fill:#000000;fill-opacity:1;stroke:none;font-family:Sans"
       x="25.928612"
       y="882.2276"
       id="text3956"
       sodipodi:linespacing="125%"
       transform="scale(1.0080075,0.99205611)"><tspan
         sodipodi:role="line"
         id="tspan3958"
         x="25.928612"
         y="882.2276">1!</tspan></text>
    <path
       style="fill:none;stroke:#000000;stroke-width:1px;stroke-linecap:butt;stroke-linejoin:miter;stroke-opacity:1"
       d="m 1.4285713,592.36218 77.1428567,1.42857"
       id="path3960"
       inkscape:connector-curvature="0" />
    <path
       style="fill:none;stroke:#000000;stroke-width:1px;stroke-linecap:butt;stroke-linejoin:miter;stroke-opacity:1"
       d="M 7.1428564,62.362184 68.571429,132.36218"
       id="path3962"
       inkscape:connector-curvature="0" />
    <path
       style="fill:none;stroke:#000000;stroke-width:1px;stroke-linecap:butt;stroke-linejoin:miter;stroke-opacity:1"
       d="M 71.428572,59.505044 4.2857144,132.36218"
       id="path3964"
       inkscape:connector-curvature="0" />
    <text
       xml:space="preserve"
       style="font-size:40px;font-style:normal;font-weight:normal;line-height:125%;letter-spacing:0px;word-spacing:0px;fill:#000000;fill-opacity:1;stroke:none;font-family:Sans"
       x="-384.28574"
       y="616.64789"
       id="text3966"
       sodipodi:linespacing="125%"><tspan
         sodipodi:role="line"
         id="tspan3968"
         x="-384.28574"
         y="616.64789">1,0,0</tspan></text>
    <text
       xml:space="preserve"
       style="font-size:40px;font-style:normal;font-weight:normal;line-height:125%;letter-spacing:0px;word-spacing:0px;fill:#000000;fill-opacity:1;stroke:none;font-family:Sans"
       x="-380"
       y="135.21931"
       id="text3970"
       sodipodi:linespacing="125%"><tspan
         sodipodi:role="line"
         id="tspan3972"
         x="-380"
         y="135.21931">0,0,1</tspan></text>
    <text
       xml:space="preserve"
       style="font-size:40px;font-style:normal;font-weight:normal;line-height:125%;letter-spacing:0px;word-spacing:0px;fill:#000000;fill-opacity:1;stroke:none;font-family:Sans"
       x="-378.57141"
       y="880.93365"
       id="text3974"
       sodipodi:linespacing="125%"><tspan
         sodipodi:role="line"
         id="tspan3976"
         x="-378.57141"
         y="880.93365">1,1,1</tspan></text>
    <text
       xml:space="preserve"
       style="font-size:40px;font-style:normal;font-weight:normal;line-height:125%;letter-spacing:0px;word-spacing:0px;fill:#000000;fill-opacity:1;stroke:none;font-family:Sans"
       x="-391.42859"
       y="13.790771"
       id="text3978"
       sodipodi:linespacing="125%"><tspan
         sodipodi:role="line"
         id="tspan3980"
         x="-391.42859"
         y="13.790771">0,0,0</tspan></text>
    <text
       xml:space="preserve"
       style="font-size:40px;font-style:normal;font-weight:normal;line-height:125%;letter-spacing:0px;word-spacing:0px;fill:#000000;fill-opacity:1;stroke:none;font-family:Sans"
       x="-395.71426"
       y="442.93369"
       id="text3982"
       sodipodi:linespacing="125%"><tspan
         sodipodi:role="line"
         id="tspan3984"
         x="-395.71426"
         y="442.93369">1,1,0</tspan></text>
    <text
       xml:space="preserve"
       style="font-size:40px;font-style:normal;font-weight:normal;line-height:125%;letter-spacing:0px;word-spacing:0px;fill:#000000;fill-opacity:1;stroke:none;font-family:Sans"
       x="-385.71426"
       y="228.07654"
       id="text3986"
       sodipodi:linespacing="125%"><tspan
         sodipodi:role="line"
         id="tspan3988"
         x="-385.71426"
         y="228.07654">0,1,0</tspan></text>
    <text
       xml:space="preserve"
       style="font-size:40px;font-style:normal;font-weight:normal;line-height:125%;letter-spacing:0px;word-spacing:0px;fill:#000000;fill-opacity:1;stroke:none;font-family:Sans"
       x="-387.14285"
       y="680.93359"
       id="text3990"
       sodipodi:linespacing="125%"><tspan
         sodipodi:role="line"
         id="tspan3992"
         x="-387.14285"
         y="680.93359">1,0,1</tspan></text>
    <text
       xml:space="preserve"
       style="font-size:40px;font-style:normal;font-weight:normal;line-height:125%;letter-spacing:0px;word-spacing:0px;fill:#000000;fill-opacity:1;stroke:none;font-family:Sans"
       x="-380"
       y="332.36221"
       id="text3994"
       sodipodi:linespacing="125%"><tspan
         sodipodi:role="line"
         id="tspan3996"
         x="-380"
         y="332.36221">0,1,1</tspan></text>
  </g>
</svg>
